<?xml version="1.0" encoding="UTF-8" standalone="no"?><svg xmlns="http://www.w3.org/2000/svg" xmlns:xlink="http://www.w3.org/1999/xlink" contentScriptType="application/ecmascript" contentStyleType="text/css" height="718px" preserveAspectRatio="none" style="width:1147px;height:718px;" version="1.1" viewBox="0 0 1147 718" width="1147px" zoomAndPan="magnify"><defs><filter height="300%" id="f3aoeg5khsct4" width="300%" x="-1" y="-1"><feGaussianBlur result="blurOut" stdDeviation="2.0"/><feColorMatrix in="blurOut" result="blurOut2" type="matrix" values="0 0 0 0 0 0 0 0 0 0 0 0 0 0 0 0 0 0 .4 0"/><feOffset dx="4.0" dy="4.0" in="blurOut2" result="blurOut3"/><feBlend in="SourceGraphic" in2="blurOut3" mode="normal"/></filter></defs><g><!--class Instruction--><a target="_top" xlink:actuate="onRequest" xlink:href="marker:/org.eclipse.emf.ecore.diagnostic/fr.unice.polytech.robotproject.model/model/model.ecore?uri=platform:/resource/fr.unice.polytech.robotproject.model/model/model.ecore%23//Instruction" xlink:show="new" xlink:title="marker:/org.eclipse.emf.ecore.diagnostic/fr.unice.polytech.robotproject.model/model/model.ecore?uri=platform:/resource/fr.unice.polytech.robotproject.model/model/model.ecore%23//Instruction" xlink:type="simple"><rect fill="#FEFECE" filter="url(#f3aoeg5khsct4)" height="48" id="Instruction" style="stroke: #A80036; stroke-width: 1.5;" width="89" x="679.5" y="151"/><ellipse cx="694.5" cy="167" fill="#B4A7E5" rx="11" ry="11" style="stroke: #A80036; stroke-width: 1.0;"/><path d="M695.4531,163.6406 L695.4531,170.2969 L697.1719,170.2969 Q697.7813,170.2969 698.0469,170.5313 Q698.3125,170.7656 698.3125,171.1563 Q698.3125,171.5313 698.0469,171.7656 Q697.7813,172 697.1719,172 L692.0313,172 Q691.4219,172 691.1563,171.7656 Q690.8906,171.5313 690.8906,171.1406 Q690.8906,170.7656 691.1563,170.5313 Q691.4219,170.2969 692.0313,170.2969 L693.75,170.2969 L693.75,163.6406 L692.0313,163.6406 Q691.4219,163.6406 691.1563,163.4063 Q690.8906,163.1719 690.8906,162.7813 Q690.8906,162.4063 691.1563,162.1719 Q691.4219,161.9375 692.0313,161.9375 L697.1719,161.9375 Q697.7813,161.9375 698.0469,162.1719 Q698.3125,162.4063 698.3125,162.7813 Q698.3125,163.1719 698.0469,163.4063 Q697.7813,163.6406 697.1719,163.6406 L695.4531,163.6406 Z "/><text fill="#000000" font-family="sans-serif" font-size="12" font-style="italic" lengthAdjust="spacingAndGlyphs" textLength="57" x="708.5" y="171.9102">Instruction</text><line style="stroke: #A80036; stroke-width: 1.5;" x1="680.5" x2="767.5" y1="183" y2="183"/><line style="stroke: #A80036; stroke-width: 1.5;" x1="680.5" x2="767.5" y1="191" y2="191"/></a><!--class MoveStraight--><a target="_top" xlink:actuate="onRequest" xlink:href="marker:/org.eclipse.emf.ecore.diagnostic/fr.unice.polytech.robotproject.model/model/model.ecore?uri=platform:/resource/fr.unice.polytech.robotproject.model/model/model.ecore%23//MoveStraight" xlink:show="new" xlink:title="marker:/org.eclipse.emf.ecore.diagnostic/fr.unice.polytech.robotproject.model/model/model.ecore?uri=platform:/resource/fr.unice.polytech.robotproject.model/model/model.ecore%23//MoveStraight" xlink:type="simple"><rect fill="#FEFECE" filter="url(#f3aoeg5khsct4)" height="48" id="MoveStraight" style="stroke: #A80036; stroke-width: 1.5;" width="102" x="20" y="409"/><ellipse cx="35" cy="425" fill="#ADD1B2" rx="11" ry="11" style="stroke: #A80036; stroke-width: 1.0;"/><path d="M37.7656,420.875 Q37.9219,420.6563 38.1094,420.5469 Q38.2969,420.4375 38.5156,420.4375 Q38.8906,420.4375 39.125,420.6953 Q39.3594,420.9531 39.3594,421.5625 L39.3594,423.0156 Q39.3594,423.625 39.125,423.8906 Q38.8906,424.1563 38.5156,424.1563 Q38.1719,424.1563 37.9688,423.9531 Q37.7656,423.7656 37.6563,423.25 Q37.6094,422.8906 37.4219,422.7031 Q37.0938,422.3281 36.4844,422.1094 Q35.875,421.8906 35.25,421.8906 Q34.4844,421.8906 33.8516,422.2188 Q33.2188,422.5469 32.7266,423.2969 Q32.2344,424.0469 32.2344,425.0781 L32.2344,426.1719 Q32.2344,427.4063 33.125,428.2266 Q34.0156,429.0469 35.6094,429.0469 Q36.5469,429.0469 37.2031,428.7969 Q37.5938,428.6406 38.0156,428.2031 Q38.2813,427.9375 38.4297,427.8594 Q38.5781,427.7813 38.7813,427.7813 Q39.1094,427.7813 39.3672,428.0391 Q39.625,428.2969 39.625,428.6406 Q39.625,428.9844 39.2813,429.3906 Q38.7813,429.9688 37.9844,430.2969 Q36.9063,430.75 35.6094,430.75 Q34.0938,430.75 32.8906,430.125 Q31.9063,429.625 31.2188,428.5547 Q30.5313,427.4844 30.5313,426.2031 L30.5313,425.0469 Q30.5313,423.7188 31.1484,422.5703 Q31.7656,421.4219 32.8594,420.8047 Q33.9531,420.1875 35.1875,420.1875 Q35.9219,420.1875 36.5703,420.3516 Q37.2188,420.5156 37.7656,420.875 Z "/><text fill="#000000" font-family="sans-serif" font-size="12" lengthAdjust="spacingAndGlyphs" textLength="70" x="49" y="429.9102">MoveStraight</text><line style="stroke: #A80036; stroke-width: 1.5;" x1="21" x2="121" y1="441" y2="441"/><line style="stroke: #A80036; stroke-width: 1.5;" x1="21" x2="121" y1="449" y2="449"/></a><!--class Robot--><a target="_top" xlink:actuate="onRequest" xlink:href="marker:/org.eclipse.emf.ecore.diagnostic/fr.unice.polytech.robotproject.model/model/model.ecore?uri=platform:/resource/fr.unice.polytech.robotproject.model/model/model.ecore%23//Robot" xlink:show="new" xlink:title="marker:/org.eclipse.emf.ecore.diagnostic/fr.unice.polytech.robotproject.model/model/model.ecore?uri=platform:/resource/fr.unice.polytech.robotproject.model/model/model.ecore%23//Robot" xlink:type="simple"><rect fill="#FEFECE" filter="url(#f3aoeg5khsct4)" height="48" id="Robot" style="stroke: #A80036; stroke-width: 1.5;" width="65" x="691.5" y="15"/><ellipse cx="706.5" cy="31" fill="#ADD1B2" rx="11" ry="11" style="stroke: #A80036; stroke-width: 1.0;"/><path d="M709.2656,26.875 Q709.4219,26.6563 709.6094,26.5469 Q709.7969,26.4375 710.0156,26.4375 Q710.3906,26.4375 710.625,26.6953 Q710.8594,26.9531 710.8594,27.5625 L710.8594,29.0156 Q710.8594,29.625 710.625,29.8906 Q710.3906,30.1563 710.0156,30.1563 Q709.6719,30.1563 709.4688,29.9531 Q709.2656,29.7656 709.1563,29.25 Q709.1094,28.8906 708.9219,28.7031 Q708.5938,28.3281 707.9844,28.1094 Q707.375,27.8906 706.75,27.8906 Q705.9844,27.8906 705.3516,28.2188 Q704.7188,28.5469 704.2266,29.2969 Q703.7344,30.0469 703.7344,31.0781 L703.7344,32.1719 Q703.7344,33.4063 704.625,34.2266 Q705.5156,35.0469 707.1094,35.0469 Q708.0469,35.0469 708.7031,34.7969 Q709.0938,34.6406 709.5156,34.2031 Q709.7813,33.9375 709.9297,33.8594 Q710.0781,33.7813 710.2813,33.7813 Q710.6094,33.7813 710.8672,34.0391 Q711.125,34.2969 711.125,34.6406 Q711.125,34.9844 710.7813,35.3906 Q710.2813,35.9688 709.4844,36.2969 Q708.4063,36.75 707.1094,36.75 Q705.5938,36.75 704.3906,36.125 Q703.4063,35.625 702.7188,34.5547 Q702.0313,33.4844 702.0313,32.2031 L702.0313,31.0469 Q702.0313,29.7188 702.6484,28.5703 Q703.2656,27.4219 704.3594,26.8047 Q705.4531,26.1875 706.6875,26.1875 Q707.4219,26.1875 708.0703,26.3516 Q708.7188,26.5156 709.2656,26.875 Z "/><text fill="#000000" font-family="sans-serif" font-size="12" lengthAdjust="spacingAndGlyphs" textLength="33" x="720.5" y="35.9102">Robot</text><line style="stroke: #A80036; stroke-width: 1.5;" x1="692.5" x2="755.5" y1="47" y2="47"/><line style="stroke: #A80036; stroke-width: 1.5;" x1="692.5" x2="755.5" y1="55" y2="55"/></a><!--class TimedInstruction--><a target="_top" xlink:actuate="onRequest" xlink:href="marker:/org.eclipse.emf.ecore.diagnostic/fr.unice.polytech.robotproject.model/model/model.ecore?uri=platform:/resource/fr.unice.polytech.robotproject.model/model/model.ecore%23//TimedInstruction" xlink:show="new" xlink:title="marker:/org.eclipse.emf.ecore.diagnostic/fr.unice.polytech.robotproject.model/model/model.ecore?uri=platform:/resource/fr.unice.polytech.robotproject.model/model/model.ecore%23//TimedInstruction" xlink:type="simple"><rect fill="#FEFECE" filter="url(#f3aoeg5khsct4)" height="48" id="TimedInstruction" style="stroke: #A80036; stroke-width: 1.5;" width="124" x="304" y="287"/><ellipse cx="319" cy="303" fill="#A9DCDF" rx="11" ry="11" style="stroke: #A80036; stroke-width: 1.0;"/><path d="M321.1875,304.7656 L317.0469,304.7656 L316.625,305.7969 L317.0469,305.7969 Q317.6563,305.7969 317.9219,306.0313 Q318.1875,306.2656 318.1875,306.6563 Q318.1875,307.0313 317.9219,307.2656 Q317.6563,307.5 317.0469,307.5 L314.75,307.5 Q314.1406,307.5 313.8828,307.2656 Q313.625,307.0313 313.625,306.6406 Q313.625,306.2656 313.8984,306.0234 Q314.1719,305.7813 314.7969,305.7969 L317.4688,299.1406 L316.3594,299.1406 Q315.75,299.1406 315.4844,298.9063 Q315.2188,298.6719 315.2188,298.2813 Q315.2188,297.9063 315.4844,297.6719 Q315.75,297.4375 316.3594,297.4375 L320.0313,297.4375 L323.4219,305.7969 Q324.0156,305.7969 324.2031,305.9375 Q324.5938,306.2031 324.5938,306.6563 Q324.5938,307.0313 324.3359,307.2656 Q324.0781,307.5 323.4688,307.5 L321.1719,307.5 Q320.5625,307.5 320.2969,307.2656 Q320.0313,307.0313 320.0313,306.6406 Q320.0313,306.2656 320.2969,306.0313 Q320.5625,305.7969 321.1719,305.7969 L321.5938,305.7969 L321.1875,304.7656 Z M320.4688,303.0625 L319.1094,299.6875 L317.7344,303.0625 L320.4688,303.0625 Z "/><text fill="#000000" font-family="sans-serif" font-size="12" font-style="italic" lengthAdjust="spacingAndGlyphs" textLength="92" x="333" y="307.9102">TimedInstruction</text><line style="stroke: #A80036; stroke-width: 1.5;" x1="305" x2="427" y1="319" y2="319"/><line style="stroke: #A80036; stroke-width: 1.5;" x1="305" x2="427" y1="327" y2="327"/></a><!--class Turn--><a target="_top" xlink:actuate="onRequest" xlink:href="marker:/org.eclipse.emf.ecore.diagnostic/fr.unice.polytech.robotproject.model/model/model.ecore?uri=platform:/resource/fr.unice.polytech.robotproject.model/model/model.ecore%23//Turn" xlink:show="new" xlink:title="marker:/org.eclipse.emf.ecore.diagnostic/fr.unice.polytech.robotproject.model/model/model.ecore?uri=platform:/resource/fr.unice.polytech.robotproject.model/model/model.ecore%23//Turn" xlink:type="simple"><rect fill="#FEFECE" filter="url(#f3aoeg5khsct4)" height="48" id="Turn" style="stroke: #A80036; stroke-width: 1.5;" width="57" x="337.5" y="409"/><ellipse cx="352.5" cy="425" fill="#ADD1B2" rx="11" ry="11" style="stroke: #A80036; stroke-width: 1.0;"/><path d="M355.2656,420.875 Q355.4219,420.6563 355.6094,420.5469 Q355.7969,420.4375 356.0156,420.4375 Q356.3906,420.4375 356.625,420.6953 Q356.8594,420.9531 356.8594,421.5625 L356.8594,423.0156 Q356.8594,423.625 356.625,423.8906 Q356.3906,424.1563 356.0156,424.1563 Q355.6719,424.1563 355.4688,423.9531 Q355.2656,423.7656 355.1563,423.25 Q355.1094,422.8906 354.9219,422.7031 Q354.5938,422.3281 353.9844,422.1094 Q353.375,421.8906 352.75,421.8906 Q351.9844,421.8906 351.3516,422.2188 Q350.7188,422.5469 350.2266,423.2969 Q349.7344,424.0469 349.7344,425.0781 L349.7344,426.1719 Q349.7344,427.4063 350.625,428.2266 Q351.5156,429.0469 353.1094,429.0469 Q354.0469,429.0469 354.7031,428.7969 Q355.0938,428.6406 355.5156,428.2031 Q355.7813,427.9375 355.9297,427.8594 Q356.0781,427.7813 356.2813,427.7813 Q356.6094,427.7813 356.8672,428.0391 Q357.125,428.2969 357.125,428.6406 Q357.125,428.9844 356.7813,429.3906 Q356.2813,429.9688 355.4844,430.2969 Q354.4063,430.75 353.1094,430.75 Q351.5938,430.75 350.3906,430.125 Q349.4063,429.625 348.7188,428.5547 Q348.0313,427.4844 348.0313,426.2031 L348.0313,425.0469 Q348.0313,423.7188 348.6484,422.5703 Q349.2656,421.4219 350.3594,420.8047 Q351.4531,420.1875 352.6875,420.1875 Q353.4219,420.1875 354.0703,420.3516 Q354.7188,420.5156 355.2656,420.875 Z "/><text fill="#000000" font-family="sans-serif" font-size="12" lengthAdjust="spacingAndGlyphs" textLength="25" x="366.5" y="429.9102">Turn</text><line style="stroke: #A80036; stroke-width: 1.5;" x1="338.5" x2="393.5" y1="441" y2="441"/><line style="stroke: #A80036; stroke-width: 1.5;" x1="338.5" x2="393.5" y1="449" y2="449"/></a><!--class Amount--><a target="_top" xlink:actuate="onRequest" xlink:href="marker:/org.eclipse.emf.ecore.diagnostic/fr.unice.polytech.robotproject.model/model/model.ecore?uri=platform:/resource/fr.unice.polytech.robotproject.model/model/model.ecore%23//Amount" xlink:show="new" xlink:title="marker:/org.eclipse.emf.ecore.diagnostic/fr.unice.polytech.robotproject.model/model/model.ecore?uri=platform:/resource/fr.unice.polytech.robotproject.model/model/model.ecore%23//Amount" xlink:type="simple"><rect fill="#FEFECE" filter="url(#f3aoeg5khsct4)" height="61.8359" id="Amount" style="stroke: #A80036; stroke-width: 1.5;" width="74" x="157" y="402"/><ellipse cx="172" cy="418" fill="#ADD1B2" rx="11" ry="11" style="stroke: #A80036; stroke-width: 1.0;"/><path d="M174.7656,413.875 Q174.9219,413.6563 175.1094,413.5469 Q175.2969,413.4375 175.5156,413.4375 Q175.8906,413.4375 176.125,413.6953 Q176.3594,413.9531 176.3594,414.5625 L176.3594,416.0156 Q176.3594,416.625 176.125,416.8906 Q175.8906,417.1563 175.5156,417.1563 Q175.1719,417.1563 174.9688,416.9531 Q174.7656,416.7656 174.6563,416.25 Q174.6094,415.8906 174.4219,415.7031 Q174.0938,415.3281 173.4844,415.1094 Q172.875,414.8906 172.25,414.8906 Q171.4844,414.8906 170.8516,415.2188 Q170.2188,415.5469 169.7266,416.2969 Q169.2344,417.0469 169.2344,418.0781 L169.2344,419.1719 Q169.2344,420.4063 170.125,421.2266 Q171.0156,422.0469 172.6094,422.0469 Q173.5469,422.0469 174.2031,421.7969 Q174.5938,421.6406 175.0156,421.2031 Q175.2813,420.9375 175.4297,420.8594 Q175.5781,420.7813 175.7813,420.7813 Q176.1094,420.7813 176.3672,421.0391 Q176.625,421.2969 176.625,421.6406 Q176.625,421.9844 176.2813,422.3906 Q175.7813,422.9688 174.9844,423.2969 Q173.9063,423.75 172.6094,423.75 Q171.0938,423.75 169.8906,423.125 Q168.9063,422.625 168.2188,421.5547 Q167.5313,420.4844 167.5313,419.2031 L167.5313,418.0469 Q167.5313,416.7188 168.1484,415.5703 Q168.7656,414.4219 169.8594,413.8047 Q170.9531,413.1875 172.1875,413.1875 Q172.9219,413.1875 173.5703,413.3516 Q174.2188,413.5156 174.7656,413.875 Z "/><text fill="#000000" font-family="sans-serif" font-size="12" lengthAdjust="spacingAndGlyphs" textLength="42" x="186" y="422.9102">Amount</text><line style="stroke: #A80036; stroke-width: 1.5;" x1="158" x2="230" y1="434" y2="434"/><text fill="#000000" font-family="sans-serif" font-size="11" lengthAdjust="spacingAndGlyphs" textLength="40" x="163" y="449.4189">int value</text><line style="stroke: #A80036; stroke-width: 1.5;" x1="158" x2="230" y1="455.8359" y2="455.8359"/></a><!--class Duration--><a target="_top" xlink:actuate="onRequest" xlink:href="marker:/org.eclipse.emf.ecore.diagnostic/fr.unice.polytech.robotproject.model/model/model.ecore?uri=platform:/resource/fr.unice.polytech.robotproject.model/model/model.ecore%23//Duration" xlink:show="new" xlink:title="marker:/org.eclipse.emf.ecore.diagnostic/fr.unice.polytech.robotproject.model/model/model.ecore?uri=platform:/resource/fr.unice.polytech.robotproject.model/model/model.ecore%23//Duration" xlink:type="simple"><rect fill="#FEFECE" filter="url(#f3aoeg5khsct4)" height="61.8359" id="Duration" style="stroke: #A80036; stroke-width: 1.5;" width="92" x="181" y="524"/><ellipse cx="201.85" cy="540" fill="#ADD1B2" rx="11" ry="11" style="stroke: #A80036; stroke-width: 1.0;"/><path d="M204.6156,535.875 Q204.7719,535.6563 204.9594,535.5469 Q205.1469,535.4375 205.3656,535.4375 Q205.7406,535.4375 205.975,535.6953 Q206.2094,535.9531 206.2094,536.5625 L206.2094,538.0156 Q206.2094,538.625 205.975,538.8906 Q205.7406,539.1563 205.3656,539.1563 Q205.0219,539.1563 204.8188,538.9531 Q204.6156,538.7656 204.5063,538.25 Q204.4594,537.8906 204.2719,537.7031 Q203.9438,537.3281 203.3344,537.1094 Q202.725,536.8906 202.1,536.8906 Q201.3344,536.8906 200.7016,537.2188 Q200.0688,537.5469 199.5766,538.2969 Q199.0844,539.0469 199.0844,540.0781 L199.0844,541.1719 Q199.0844,542.4063 199.975,543.2266 Q200.8656,544.0469 202.4594,544.0469 Q203.3969,544.0469 204.0531,543.7969 Q204.4438,543.6406 204.8656,543.2031 Q205.1313,542.9375 205.2797,542.8594 Q205.4281,542.7813 205.6313,542.7813 Q205.9594,542.7813 206.2172,543.0391 Q206.475,543.2969 206.475,543.6406 Q206.475,543.9844 206.1313,544.3906 Q205.6313,544.9688 204.8344,545.2969 Q203.7563,545.75 202.4594,545.75 Q200.9438,545.75 199.7406,545.125 Q198.7563,544.625 198.0688,543.5547 Q197.3813,542.4844 197.3813,541.2031 L197.3813,540.0469 Q197.3813,538.7188 197.9984,537.5703 Q198.6156,536.4219 199.7094,535.8047 Q200.8031,535.1875 202.0375,535.1875 Q202.7719,535.1875 203.4203,535.3516 Q204.0688,535.5156 204.6156,535.875 Z "/><text fill="#000000" font-family="sans-serif" font-size="12" lengthAdjust="spacingAndGlyphs" textLength="47" x="217.15" y="544.9102">Duration</text><line style="stroke: #A80036; stroke-width: 1.5;" x1="182" x2="272" y1="556" y2="556"/><text fill="#000000" font-family="sans-serif" font-size="11" lengthAdjust="spacingAndGlyphs" textLength="80" x="187" y="571.4189">TimeUnit timeUnit</text><line style="stroke: #A80036; stroke-width: 1.5;" x1="182" x2="272" y1="577.8359" y2="577.8359"/></a><!--class Function--><a target="_top" xlink:actuate="onRequest" xlink:href="marker:/org.eclipse.emf.ecore.diagnostic/fr.unice.polytech.robotproject.model/model/model.ecore?uri=platform:/resource/fr.unice.polytech.robotproject.model/model/model.ecore%23//Function" xlink:show="new" xlink:title="marker:/org.eclipse.emf.ecore.diagnostic/fr.unice.polytech.robotproject.model/model/model.ecore?uri=platform:/resource/fr.unice.polytech.robotproject.model/model/model.ecore%23//Function" xlink:type="simple"><rect fill="#FEFECE" filter="url(#f3aoeg5khsct4)" height="61.8359" id="Function" style="stroke: #A80036; stroke-width: 1.5;" width="79" x="626.5" y="402"/><ellipse cx="641.5" cy="418" fill="#ADD1B2" rx="11" ry="11" style="stroke: #A80036; stroke-width: 1.0;"/><path d="M644.2656,413.875 Q644.4219,413.6563 644.6094,413.5469 Q644.7969,413.4375 645.0156,413.4375 Q645.3906,413.4375 645.625,413.6953 Q645.8594,413.9531 645.8594,414.5625 L645.8594,416.0156 Q645.8594,416.625 645.625,416.8906 Q645.3906,417.1563 645.0156,417.1563 Q644.6719,417.1563 644.4688,416.9531 Q644.2656,416.7656 644.1563,416.25 Q644.1094,415.8906 643.9219,415.7031 Q643.5938,415.3281 642.9844,415.1094 Q642.375,414.8906 641.75,414.8906 Q640.9844,414.8906 640.3516,415.2188 Q639.7188,415.5469 639.2266,416.2969 Q638.7344,417.0469 638.7344,418.0781 L638.7344,419.1719 Q638.7344,420.4063 639.625,421.2266 Q640.5156,422.0469 642.1094,422.0469 Q643.0469,422.0469 643.7031,421.7969 Q644.0938,421.6406 644.5156,421.2031 Q644.7813,420.9375 644.9297,420.8594 Q645.0781,420.7813 645.2813,420.7813 Q645.6094,420.7813 645.8672,421.0391 Q646.125,421.2969 646.125,421.6406 Q646.125,421.9844 645.7813,422.3906 Q645.2813,422.9688 644.4844,423.2969 Q643.4063,423.75 642.1094,423.75 Q640.5938,423.75 639.3906,423.125 Q638.4063,422.625 637.7188,421.5547 Q637.0313,420.4844 637.0313,419.2031 L637.0313,418.0469 Q637.0313,416.7188 637.6484,415.5703 Q638.2656,414.4219 639.3594,413.8047 Q640.4531,413.1875 641.6875,413.1875 Q642.4219,413.1875 643.0703,413.3516 Q643.7188,413.5156 644.2656,413.875 Z "/><text fill="#000000" font-family="sans-serif" font-size="12" lengthAdjust="spacingAndGlyphs" textLength="47" x="655.5" y="422.9102">Function</text><line style="stroke: #A80036; stroke-width: 1.5;" x1="627.5" x2="704.5" y1="434" y2="434"/><text fill="#000000" font-family="sans-serif" font-size="11" lengthAdjust="spacingAndGlyphs" textLength="57" x="632.5" y="449.4189">String name</text><line style="stroke: #A80036; stroke-width: 1.5;" x1="627.5" x2="704.5" y1="455.8359" y2="455.8359"/></a><!--class DistanceUnit--><rect fill="#FEFECE" filter="url(#f3aoeg5khsct4)" height="61.8359" id="DistanceUnit" style="stroke: #A80036; stroke-width: 1.5;" width="103" x="399.5" y="8"/><ellipse cx="414.5" cy="24" fill="#EB937F" rx="11" ry="11" style="stroke: #A80036; stroke-width: 1.0;"/><path d="M413.3594,24.7969 L413.3594,27.2969 L417.6875,27.2969 L417.6875,26.375 Q417.6875,25.7656 417.9297,25.5 Q418.1719,25.2344 418.5469,25.2344 Q418.9219,25.2344 419.1563,25.5 Q419.3906,25.7656 419.3906,26.375 L419.3906,29 L411.3906,29 Q410.7656,29 410.5078,28.7656 Q410.25,28.5313 410.25,28.1406 Q410.25,27.7656 410.5156,27.5313 Q410.7813,27.2969 411.3906,27.2969 L411.6563,27.2969 L411.6563,20.6406 L411.3906,20.6406 Q410.7656,20.6406 410.5078,20.4063 Q410.25,20.1719 410.25,19.7813 Q410.25,19.4063 410.5078,19.1719 Q410.7656,18.9375 411.3906,18.9375 L419.0156,18.9375 L419.0156,21.5313 Q419.0156,22.1406 418.7891,22.3984 Q418.5625,22.6563 418.1719,22.6563 Q417.7969,22.6563 417.5625,22.3984 Q417.3281,22.1406 417.3281,21.5313 L417.3281,20.6406 L413.3594,20.6406 L413.3594,23.0938 L414.8438,23.0938 Q414.8438,22.4375 414.9688,22.25 Q415.2344,21.8438 415.7031,21.8438 Q416.0781,21.8438 416.3125,22.1016 Q416.5469,22.3594 416.5469,22.9688 L416.5469,24.9375 Q416.5469,25.4844 416.4219,25.6719 Q416.1563,26.0625 415.7031,26.0625 Q415.2344,26.0625 414.9688,25.6563 Q414.8438,25.4688 414.8438,24.7969 L413.3594,24.7969 Z "/><text fill="#000000" font-family="sans-serif" font-size="12" lengthAdjust="spacingAndGlyphs" textLength="71" x="428.5" y="28.9102">DistanceUnit</text><line style="stroke: #A80036; stroke-width: 1.5;" x1="400.5" x2="501.5" y1="40" y2="40"/><text fill="#000000" font-family="sans-serif" font-size="11" lengthAdjust="spacingAndGlyphs" textLength="85" x="405.5" y="55.4189">CENTIMETERS cm</text><line style="stroke: #A80036; stroke-width: 1.5;" x1="400.5" x2="501.5" y1="61.8359" y2="61.8359"/><!--class AngleUnit--><rect fill="#FEFECE" filter="url(#f3aoeg5khsct4)" height="61.8359" id="AngleUnit" style="stroke: #A80036; stroke-width: 1.5;" width="85" x="537.5" y="8"/><ellipse cx="552.5" cy="24" fill="#EB937F" rx="11" ry="11" style="stroke: #A80036; stroke-width: 1.0;"/><path d="M551.3594,24.7969 L551.3594,27.2969 L555.6875,27.2969 L555.6875,26.375 Q555.6875,25.7656 555.9297,25.5 Q556.1719,25.2344 556.5469,25.2344 Q556.9219,25.2344 557.1563,25.5 Q557.3906,25.7656 557.3906,26.375 L557.3906,29 L549.3906,29 Q548.7656,29 548.5078,28.7656 Q548.25,28.5313 548.25,28.1406 Q548.25,27.7656 548.5156,27.5313 Q548.7813,27.2969 549.3906,27.2969 L549.6563,27.2969 L549.6563,20.6406 L549.3906,20.6406 Q548.7656,20.6406 548.5078,20.4063 Q548.25,20.1719 548.25,19.7813 Q548.25,19.4063 548.5078,19.1719 Q548.7656,18.9375 549.3906,18.9375 L557.0156,18.9375 L557.0156,21.5313 Q557.0156,22.1406 556.7891,22.3984 Q556.5625,22.6563 556.1719,22.6563 Q555.7969,22.6563 555.5625,22.3984 Q555.3281,22.1406 555.3281,21.5313 L555.3281,20.6406 L551.3594,20.6406 L551.3594,23.0938 L552.8438,23.0938 Q552.8438,22.4375 552.9688,22.25 Q553.2344,21.8438 553.7031,21.8438 Q554.0781,21.8438 554.3125,22.1016 Q554.5469,22.3594 554.5469,22.9688 L554.5469,24.9375 Q554.5469,25.4844 554.4219,25.6719 Q554.1563,26.0625 553.7031,26.0625 Q553.2344,26.0625 552.9688,25.6563 Q552.8438,25.4688 552.8438,24.7969 L551.3594,24.7969 Z "/><text fill="#000000" font-family="sans-serif" font-size="12" lengthAdjust="spacingAndGlyphs" textLength="53" x="566.5" y="28.9102">AngleUnit</text><line style="stroke: #A80036; stroke-width: 1.5;" x1="538.5" x2="621.5" y1="40" y2="40"/><text fill="#000000" font-family="sans-serif" font-size="11" lengthAdjust="spacingAndGlyphs" textLength="68" x="543.5" y="55.4189">DEGREES deg</text><line style="stroke: #A80036; stroke-width: 1.5;" x1="538.5" x2="621.5" y1="61.8359" y2="61.8359"/><!--class TimeUnit--><rect fill="#FEFECE" filter="url(#f3aoeg5khsct4)" height="75.6719" id="TimeUnit" style="stroke: #A80036; stroke-width: 1.5;" width="102" x="400" y="137"/><ellipse cx="424" cy="153" fill="#EB937F" rx="11" ry="11" style="stroke: #A80036; stroke-width: 1.0;"/><path d="M422.8594,153.7969 L422.8594,156.2969 L427.1875,156.2969 L427.1875,155.375 Q427.1875,154.7656 427.4297,154.5 Q427.6719,154.2344 428.0469,154.2344 Q428.4219,154.2344 428.6563,154.5 Q428.8906,154.7656 428.8906,155.375 L428.8906,158 L420.8906,158 Q420.2656,158 420.0078,157.7656 Q419.75,157.5313 419.75,157.1406 Q419.75,156.7656 420.0156,156.5313 Q420.2813,156.2969 420.8906,156.2969 L421.1563,156.2969 L421.1563,149.6406 L420.8906,149.6406 Q420.2656,149.6406 420.0078,149.4063 Q419.75,149.1719 419.75,148.7813 Q419.75,148.4063 420.0078,148.1719 Q420.2656,147.9375 420.8906,147.9375 L428.5156,147.9375 L428.5156,150.5313 Q428.5156,151.1406 428.2891,151.3984 Q428.0625,151.6563 427.6719,151.6563 Q427.2969,151.6563 427.0625,151.3984 Q426.8281,151.1406 426.8281,150.5313 L426.8281,149.6406 L422.8594,149.6406 L422.8594,152.0938 L424.3438,152.0938 Q424.3438,151.4375 424.4688,151.25 Q424.7344,150.8438 425.2031,150.8438 Q425.5781,150.8438 425.8125,151.1016 Q426.0469,151.3594 426.0469,151.9688 L426.0469,153.9375 Q426.0469,154.4844 425.9219,154.6719 Q425.6563,155.0625 425.2031,155.0625 Q424.7344,155.0625 424.4688,154.6563 Q424.3438,154.4688 424.3438,153.7969 L422.8594,153.7969 Z "/><text fill="#000000" font-family="sans-serif" font-size="12" lengthAdjust="spacingAndGlyphs" textLength="50" x="440" y="157.9102">TimeUnit</text><line style="stroke: #A80036; stroke-width: 1.5;" x1="401" x2="501" y1="169" y2="169"/><text fill="#000000" font-family="sans-serif" font-size="11" lengthAdjust="spacingAndGlyphs" textLength="58" x="406" y="184.4189">SECONDS s</text><text fill="#000000" font-family="sans-serif" font-size="11" lengthAdjust="spacingAndGlyphs" textLength="90" x="406" y="198.2549">MILLISECONDS ms</text><line style="stroke: #A80036; stroke-width: 1.5;" x1="401" x2="501" y1="204.6719" y2="204.6719"/><!--class Call--><a target="_top" xlink:actuate="onRequest" xlink:href="marker:/org.eclipse.emf.ecore.diagnostic/fr.unice.polytech.robotproject.model/model/model.ecore?uri=platform:/resource/fr.unice.polytech.robotproject.model/model/model.ecore%23//Call" xlink:show="new" xlink:title="marker:/org.eclipse.emf.ecore.diagnostic/fr.unice.polytech.robotproject.model/model/model.ecore?uri=platform:/resource/fr.unice.polytech.robotproject.model/model/model.ecore%23//Call" xlink:type="simple"><rect fill="#FEFECE" filter="url(#f3aoeg5khsct4)" height="48" id="Call" style="stroke: #A80036; stroke-width: 1.5;" width="54" x="697" y="287"/><ellipse cx="712" cy="303" fill="#ADD1B2" rx="11" ry="11" style="stroke: #A80036; stroke-width: 1.0;"/><path d="M714.7656,298.875 Q714.9219,298.6563 715.1094,298.5469 Q715.2969,298.4375 715.5156,298.4375 Q715.8906,298.4375 716.125,298.6953 Q716.3594,298.9531 716.3594,299.5625 L716.3594,301.0156 Q716.3594,301.625 716.125,301.8906 Q715.8906,302.1563 715.5156,302.1563 Q715.1719,302.1563 714.9688,301.9531 Q714.7656,301.7656 714.6563,301.25 Q714.6094,300.8906 714.4219,300.7031 Q714.0938,300.3281 713.4844,300.1094 Q712.875,299.8906 712.25,299.8906 Q711.4844,299.8906 710.8516,300.2188 Q710.2188,300.5469 709.7266,301.2969 Q709.2344,302.0469 709.2344,303.0781 L709.2344,304.1719 Q709.2344,305.4063 710.125,306.2266 Q711.0156,307.0469 712.6094,307.0469 Q713.5469,307.0469 714.2031,306.7969 Q714.5938,306.6406 715.0156,306.2031 Q715.2813,305.9375 715.4297,305.8594 Q715.5781,305.7813 715.7813,305.7813 Q716.1094,305.7813 716.3672,306.0391 Q716.625,306.2969 716.625,306.6406 Q716.625,306.9844 716.2813,307.3906 Q715.7813,307.9688 714.9844,308.2969 Q713.9063,308.75 712.6094,308.75 Q711.0938,308.75 709.8906,308.125 Q708.9063,307.625 708.2188,306.5547 Q707.5313,305.4844 707.5313,304.2031 L707.5313,303.0469 Q707.5313,301.7188 708.1484,300.5703 Q708.7656,299.4219 709.8594,298.8047 Q710.9531,298.1875 712.1875,298.1875 Q712.9219,298.1875 713.5703,298.3516 Q714.2188,298.5156 714.7656,298.875 Z "/><text fill="#000000" font-family="sans-serif" font-size="12" lengthAdjust="spacingAndGlyphs" textLength="22" x="726" y="307.9102">Call</text><line style="stroke: #A80036; stroke-width: 1.5;" x1="698" x2="750" y1="319" y2="319"/><line style="stroke: #A80036; stroke-width: 1.5;" x1="698" x2="750" y1="327" y2="327"/></a><!--class Distance--><a target="_top" xlink:actuate="onRequest" xlink:href="marker:/org.eclipse.emf.ecore.diagnostic/fr.unice.polytech.robotproject.model/model/model.ecore?uri=platform:/resource/fr.unice.polytech.robotproject.model/model/model.ecore%23//Distance" xlink:show="new" xlink:title="marker:/org.eclipse.emf.ecore.diagnostic/fr.unice.polytech.robotproject.model/model/model.ecore?uri=platform:/resource/fr.unice.polytech.robotproject.model/model/model.ecore%23//Distance" xlink:type="simple"><rect fill="#FEFECE" filter="url(#f3aoeg5khsct4)" height="61.8359" id="Distance" style="stroke: #A80036; stroke-width: 1.5;" width="134" x="6" y="524"/><ellipse cx="44.85" cy="540" fill="#ADD1B2" rx="11" ry="11" style="stroke: #A80036; stroke-width: 1.0;"/><path d="M47.6156,535.875 Q47.7719,535.6563 47.9594,535.5469 Q48.1469,535.4375 48.3656,535.4375 Q48.7406,535.4375 48.975,535.6953 Q49.2094,535.9531 49.2094,536.5625 L49.2094,538.0156 Q49.2094,538.625 48.975,538.8906 Q48.7406,539.1563 48.3656,539.1563 Q48.0219,539.1563 47.8188,538.9531 Q47.6156,538.7656 47.5063,538.25 Q47.4594,537.8906 47.2719,537.7031 Q46.9438,537.3281 46.3344,537.1094 Q45.725,536.8906 45.1,536.8906 Q44.3344,536.8906 43.7016,537.2188 Q43.0688,537.5469 42.5766,538.2969 Q42.0844,539.0469 42.0844,540.0781 L42.0844,541.1719 Q42.0844,542.4063 42.975,543.2266 Q43.8656,544.0469 45.4594,544.0469 Q46.3969,544.0469 47.0531,543.7969 Q47.4438,543.6406 47.8656,543.2031 Q48.1313,542.9375 48.2797,542.8594 Q48.4281,542.7813 48.6313,542.7813 Q48.9594,542.7813 49.2172,543.0391 Q49.475,543.2969 49.475,543.6406 Q49.475,543.9844 49.1313,544.3906 Q48.6313,544.9688 47.8344,545.2969 Q46.7563,545.75 45.4594,545.75 Q43.9438,545.75 42.7406,545.125 Q41.7563,544.625 41.0688,543.5547 Q40.3813,542.4844 40.3813,541.2031 L40.3813,540.0469 Q40.3813,538.7188 40.9984,537.5703 Q41.6156,536.4219 42.7094,535.8047 Q43.8031,535.1875 45.0375,535.1875 Q45.7719,535.1875 46.4203,535.3516 Q47.0688,535.5156 47.6156,535.875 Z "/><text fill="#000000" font-family="sans-serif" font-size="12" lengthAdjust="spacingAndGlyphs" textLength="49" x="64.15" y="544.9102">Distance</text><line style="stroke: #A80036; stroke-width: 1.5;" x1="7" x2="139" y1="556" y2="556"/><text fill="#000000" font-family="sans-serif" font-size="11" lengthAdjust="spacingAndGlyphs" textLength="122" x="12" y="571.4189">DistanceUnit distanceUnit</text><line style="stroke: #A80036; stroke-width: 1.5;" x1="7" x2="139" y1="577.8359" y2="577.8359"/></a><!--class Angle--><a target="_top" xlink:actuate="onRequest" xlink:href="marker:/org.eclipse.emf.ecore.diagnostic/fr.unice.polytech.robotproject.model/model/model.ecore?uri=platform:/resource/fr.unice.polytech.robotproject.model/model/model.ecore%23//Angle" xlink:show="new" xlink:title="marker:/org.eclipse.emf.ecore.diagnostic/fr.unice.polytech.robotproject.model/model/model.ecore?uri=platform:/resource/fr.unice.polytech.robotproject.model/model/model.ecore%23//Angle" xlink:type="simple"><rect fill="#FEFECE" filter="url(#f3aoeg5khsct4)" height="61.8359" id="Angle" style="stroke: #A80036; stroke-width: 1.5;" width="105" x="311.5" y="524"/><ellipse cx="345.4" cy="540" fill="#ADD1B2" rx="11" ry="11" style="stroke: #A80036; stroke-width: 1.0;"/><path d="M348.1656,535.875 Q348.3219,535.6563 348.5094,535.5469 Q348.6969,535.4375 348.9156,535.4375 Q349.2906,535.4375 349.525,535.6953 Q349.7594,535.9531 349.7594,536.5625 L349.7594,538.0156 Q349.7594,538.625 349.525,538.8906 Q349.2906,539.1563 348.9156,539.1563 Q348.5719,539.1563 348.3688,538.9531 Q348.1656,538.7656 348.0563,538.25 Q348.0094,537.8906 347.8219,537.7031 Q347.4938,537.3281 346.8844,537.1094 Q346.275,536.8906 345.65,536.8906 Q344.8844,536.8906 344.2516,537.2188 Q343.6188,537.5469 343.1266,538.2969 Q342.6344,539.0469 342.6344,540.0781 L342.6344,541.1719 Q342.6344,542.4063 343.525,543.2266 Q344.4156,544.0469 346.0094,544.0469 Q346.9469,544.0469 347.6031,543.7969 Q347.9938,543.6406 348.4156,543.2031 Q348.6813,542.9375 348.8297,542.8594 Q348.9781,542.7813 349.1813,542.7813 Q349.5094,542.7813 349.7672,543.0391 Q350.025,543.2969 350.025,543.6406 Q350.025,543.9844 349.6813,544.3906 Q349.1813,544.9688 348.3844,545.2969 Q347.3063,545.75 346.0094,545.75 Q344.4938,545.75 343.2906,545.125 Q342.3063,544.625 341.6188,543.5547 Q340.9313,542.4844 340.9313,541.2031 L340.9313,540.0469 Q340.9313,538.7188 341.5484,537.5703 Q342.1656,536.4219 343.2594,535.8047 Q344.3531,535.1875 345.5875,535.1875 Q346.3219,535.1875 346.9703,535.3516 Q347.6188,535.5156 348.1656,535.875 Z "/><text fill="#000000" font-family="sans-serif" font-size="12" lengthAdjust="spacingAndGlyphs" textLength="31" x="363.6" y="544.9102">Angle</text><line style="stroke: #A80036; stroke-width: 1.5;" x1="312.5" x2="415.5" y1="556" y2="556"/><text fill="#000000" font-family="sans-serif" font-size="11" lengthAdjust="spacingAndGlyphs" textLength="93" x="317.5" y="571.4189">AngleUnit angleUnit</text><line style="stroke: #A80036; stroke-width: 1.5;" x1="312.5" x2="415.5" y1="577.8359" y2="577.8359"/></a><!--class Condition--><a target="_top" xlink:actuate="onRequest" xlink:href="marker:/org.eclipse.emf.ecore.diagnostic/fr.unice.polytech.robotproject.model/model/model.ecore?uri=platform:/resource/fr.unice.polytech.robotproject.model/model/model.ecore%23//Condition" xlink:show="new" xlink:title="marker:/org.eclipse.emf.ecore.diagnostic/fr.unice.polytech.robotproject.model/model/model.ecore?uri=platform:/resource/fr.unice.polytech.robotproject.model/model/model.ecore%23//Condition" xlink:type="simple"><rect fill="#FEFECE" filter="url(#f3aoeg5khsct4)" height="48" id="Condition" style="stroke: #A80036; stroke-width: 1.5;" width="85" x="749.5" y="531"/><ellipse cx="764.5" cy="547" fill="#A9DCDF" rx="11" ry="11" style="stroke: #A80036; stroke-width: 1.0;"/><path d="M766.6875,548.7656 L762.5469,548.7656 L762.125,549.7969 L762.5469,549.7969 Q763.1563,549.7969 763.4219,550.0313 Q763.6875,550.2656 763.6875,550.6563 Q763.6875,551.0313 763.4219,551.2656 Q763.1563,551.5 762.5469,551.5 L760.25,551.5 Q759.6406,551.5 759.3828,551.2656 Q759.125,551.0313 759.125,550.6406 Q759.125,550.2656 759.3984,550.0234 Q759.6719,549.7813 760.2969,549.7969 L762.9688,543.1406 L761.8594,543.1406 Q761.25,543.1406 760.9844,542.9063 Q760.7188,542.6719 760.7188,542.2813 Q760.7188,541.9063 760.9844,541.6719 Q761.25,541.4375 761.8594,541.4375 L765.5313,541.4375 L768.9219,549.7969 Q769.5156,549.7969 769.7031,549.9375 Q770.0938,550.2031 770.0938,550.6563 Q770.0938,551.0313 769.8359,551.2656 Q769.5781,551.5 768.9688,551.5 L766.6719,551.5 Q766.0625,551.5 765.7969,551.2656 Q765.5313,551.0313 765.5313,550.6406 Q765.5313,550.2656 765.7969,550.0313 Q766.0625,549.7969 766.6719,549.7969 L767.0938,549.7969 L766.6875,548.7656 Z M765.9688,547.0625 L764.6094,543.6875 L763.2344,547.0625 L765.9688,547.0625 Z "/><text fill="#000000" font-family="sans-serif" font-size="12" font-style="italic" lengthAdjust="spacingAndGlyphs" textLength="53" x="778.5" y="551.9102">Condition</text><line style="stroke: #A80036; stroke-width: 1.5;" x1="750.5" x2="833.5" y1="563" y2="563"/><line style="stroke: #A80036; stroke-width: 1.5;" x1="750.5" x2="833.5" y1="571" y2="571"/></a><!--class SensorActivation--><a target="_top" xlink:actuate="onRequest" xlink:href="marker:/org.eclipse.emf.ecore.diagnostic/fr.unice.polytech.robotproject.model/model/model.ecore?uri=platform:/resource/fr.unice.polytech.robotproject.model/model/model.ecore%23//SensorActivation" xlink:show="new" xlink:title="marker:/org.eclipse.emf.ecore.diagnostic/fr.unice.polytech.robotproject.model/model/model.ecore?uri=platform:/resource/fr.unice.polytech.robotproject.model/model/model.ecore%23//SensorActivation" xlink:type="simple"><rect fill="#FEFECE" filter="url(#f3aoeg5khsct4)" height="48" id="SensorActivation" style="stroke: #A80036; stroke-width: 1.5;" width="123" x="814.5" y="653"/><ellipse cx="829.5" cy="669" fill="#ADD1B2" rx="11" ry="11" style="stroke: #A80036; stroke-width: 1.0;"/><path d="M832.2656,664.875 Q832.4219,664.6563 832.6094,664.5469 Q832.7969,664.4375 833.0156,664.4375 Q833.3906,664.4375 833.625,664.6953 Q833.8594,664.9531 833.8594,665.5625 L833.8594,667.0156 Q833.8594,667.625 833.625,667.8906 Q833.3906,668.1563 833.0156,668.1563 Q832.6719,668.1563 832.4688,667.9531 Q832.2656,667.7656 832.1563,667.25 Q832.1094,666.8906 831.9219,666.7031 Q831.5938,666.3281 830.9844,666.1094 Q830.375,665.8906 829.75,665.8906 Q828.9844,665.8906 828.3516,666.2188 Q827.7188,666.5469 827.2266,667.2969 Q826.7344,668.0469 826.7344,669.0781 L826.7344,670.1719 Q826.7344,671.4063 827.625,672.2266 Q828.5156,673.0469 830.1094,673.0469 Q831.0469,673.0469 831.7031,672.7969 Q832.0938,672.6406 832.5156,672.2031 Q832.7813,671.9375 832.9297,671.8594 Q833.0781,671.7813 833.2813,671.7813 Q833.6094,671.7813 833.8672,672.0391 Q834.125,672.2969 834.125,672.6406 Q834.125,672.9844 833.7813,673.3906 Q833.2813,673.9688 832.4844,674.2969 Q831.4063,674.75 830.1094,674.75 Q828.5938,674.75 827.3906,674.125 Q826.4063,673.625 825.7188,672.5547 Q825.0313,671.4844 825.0313,670.2031 L825.0313,669.0469 Q825.0313,667.7188 825.6484,666.5703 Q826.2656,665.4219 827.3594,664.8047 Q828.4531,664.1875 829.6875,664.1875 Q830.4219,664.1875 831.0703,664.3516 Q831.7188,664.5156 832.2656,664.875 Z "/><text fill="#000000" font-family="sans-serif" font-size="12" lengthAdjust="spacingAndGlyphs" textLength="91" x="843.5" y="673.9102">SensorActivation</text><line style="stroke: #A80036; stroke-width: 1.5;" x1="815.5" x2="936.5" y1="685" y2="685"/><line style="stroke: #A80036; stroke-width: 1.5;" x1="815.5" x2="936.5" y1="693" y2="693"/></a><!--class Grab--><a target="_top" xlink:actuate="onRequest" xlink:href="marker:/org.eclipse.emf.ecore.diagnostic/fr.unice.polytech.robotproject.model/model/model.ecore?uri=platform:/resource/fr.unice.polytech.robotproject.model/model/model.ecore%23//Grab" xlink:show="new" xlink:title="marker:/org.eclipse.emf.ecore.diagnostic/fr.unice.polytech.robotproject.model/model/model.ecore?uri=platform:/resource/fr.unice.polytech.robotproject.model/model/model.ecore%23//Grab" xlink:type="simple"><rect fill="#FEFECE" filter="url(#f3aoeg5khsct4)" height="48" id="Grab" style="stroke: #A80036; stroke-width: 1.5;" width="59" x="857.5" y="287"/><ellipse cx="872.5" cy="303" fill="#ADD1B2" rx="11" ry="11" style="stroke: #A80036; stroke-width: 1.0;"/><path d="M875.2656,298.875 Q875.4219,298.6563 875.6094,298.5469 Q875.7969,298.4375 876.0156,298.4375 Q876.3906,298.4375 876.625,298.6953 Q876.8594,298.9531 876.8594,299.5625 L876.8594,301.0156 Q876.8594,301.625 876.625,301.8906 Q876.3906,302.1563 876.0156,302.1563 Q875.6719,302.1563 875.4688,301.9531 Q875.2656,301.7656 875.1563,301.25 Q875.1094,300.8906 874.9219,300.7031 Q874.5938,300.3281 873.9844,300.1094 Q873.375,299.8906 872.75,299.8906 Q871.9844,299.8906 871.3516,300.2188 Q870.7188,300.5469 870.2266,301.2969 Q869.7344,302.0469 869.7344,303.0781 L869.7344,304.1719 Q869.7344,305.4063 870.625,306.2266 Q871.5156,307.0469 873.1094,307.0469 Q874.0469,307.0469 874.7031,306.7969 Q875.0938,306.6406 875.5156,306.2031 Q875.7813,305.9375 875.9297,305.8594 Q876.0781,305.7813 876.2813,305.7813 Q876.6094,305.7813 876.8672,306.0391 Q877.125,306.2969 877.125,306.6406 Q877.125,306.9844 876.7813,307.3906 Q876.2813,307.9688 875.4844,308.2969 Q874.4063,308.75 873.1094,308.75 Q871.5938,308.75 870.3906,308.125 Q869.4063,307.625 868.7188,306.5547 Q868.0313,305.4844 868.0313,304.2031 L868.0313,303.0469 Q868.0313,301.7188 868.6484,300.5703 Q869.2656,299.4219 870.3594,298.8047 Q871.4531,298.1875 872.6875,298.1875 Q873.4219,298.1875 874.0703,298.3516 Q874.7188,298.5156 875.2656,298.875 Z "/><text fill="#000000" font-family="sans-serif" font-size="12" lengthAdjust="spacingAndGlyphs" textLength="27" x="886.5" y="307.9102">Grab</text><line style="stroke: #A80036; stroke-width: 1.5;" x1="858.5" x2="915.5" y1="319" y2="319"/><line style="stroke: #A80036; stroke-width: 1.5;" x1="858.5" x2="915.5" y1="327" y2="327"/></a><!--class Release--><a target="_top" xlink:actuate="onRequest" xlink:href="marker:/org.eclipse.emf.ecore.diagnostic/fr.unice.polytech.robotproject.model/model/model.ecore?uri=platform:/resource/fr.unice.polytech.robotproject.model/model/model.ecore%23//Release" xlink:show="new" xlink:title="marker:/org.eclipse.emf.ecore.diagnostic/fr.unice.polytech.robotproject.model/model/model.ecore?uri=platform:/resource/fr.unice.polytech.robotproject.model/model/model.ecore%23//Release" xlink:type="simple"><rect fill="#FEFECE" filter="url(#f3aoeg5khsct4)" height="48" id="Release" style="stroke: #A80036; stroke-width: 1.5;" width="79" x="951.5" y="287"/><ellipse cx="966.5" cy="303" fill="#ADD1B2" rx="11" ry="11" style="stroke: #A80036; stroke-width: 1.0;"/><path d="M969.2656,298.875 Q969.4219,298.6563 969.6094,298.5469 Q969.7969,298.4375 970.0156,298.4375 Q970.3906,298.4375 970.625,298.6953 Q970.8594,298.9531 970.8594,299.5625 L970.8594,301.0156 Q970.8594,301.625 970.625,301.8906 Q970.3906,302.1563 970.0156,302.1563 Q969.6719,302.1563 969.4688,301.9531 Q969.2656,301.7656 969.1563,301.25 Q969.1094,300.8906 968.9219,300.7031 Q968.5938,300.3281 967.9844,300.1094 Q967.375,299.8906 966.75,299.8906 Q965.9844,299.8906 965.3516,300.2188 Q964.7188,300.5469 964.2266,301.2969 Q963.7344,302.0469 963.7344,303.0781 L963.7344,304.1719 Q963.7344,305.4063 964.625,306.2266 Q965.5156,307.0469 967.1094,307.0469 Q968.0469,307.0469 968.7031,306.7969 Q969.0938,306.6406 969.5156,306.2031 Q969.7813,305.9375 969.9297,305.8594 Q970.0781,305.7813 970.2813,305.7813 Q970.6094,305.7813 970.8672,306.0391 Q971.125,306.2969 971.125,306.6406 Q971.125,306.9844 970.7813,307.3906 Q970.2813,307.9688 969.4844,308.2969 Q968.4063,308.75 967.1094,308.75 Q965.5938,308.75 964.3906,308.125 Q963.4063,307.625 962.7188,306.5547 Q962.0313,305.4844 962.0313,304.2031 L962.0313,303.0469 Q962.0313,301.7188 962.6484,300.5703 Q963.2656,299.4219 964.3594,298.8047 Q965.4531,298.1875 966.6875,298.1875 Q967.4219,298.1875 968.0703,298.3516 Q968.7188,298.5156 969.2656,298.875 Z "/><text fill="#000000" font-family="sans-serif" font-size="12" lengthAdjust="spacingAndGlyphs" textLength="47" x="980.5" y="307.9102">Release</text><line style="stroke: #A80036; stroke-width: 1.5;" x1="952.5" x2="1029.5" y1="319" y2="319"/><line style="stroke: #A80036; stroke-width: 1.5;" x1="952.5" x2="1029.5" y1="327" y2="327"/></a><!--class Wait--><a target="_top" xlink:actuate="onRequest" xlink:href="marker:/org.eclipse.emf.ecore.diagnostic/fr.unice.polytech.robotproject.model/model/model.ecore?uri=platform:/resource/fr.unice.polytech.robotproject.model/model/model.ecore%23//Wait" xlink:show="new" xlink:title="marker:/org.eclipse.emf.ecore.diagnostic/fr.unice.polytech.robotproject.model/model/model.ecore?uri=platform:/resource/fr.unice.polytech.robotproject.model/model/model.ecore%23//Wait" xlink:type="simple"><rect fill="#FEFECE" filter="url(#f3aoeg5khsct4)" height="48" id="Wait" style="stroke: #A80036; stroke-width: 1.5;" width="56" x="430" y="409"/><ellipse cx="445" cy="425" fill="#ADD1B2" rx="11" ry="11" style="stroke: #A80036; stroke-width: 1.0;"/><path d="M447.7656,420.875 Q447.9219,420.6563 448.1094,420.5469 Q448.2969,420.4375 448.5156,420.4375 Q448.8906,420.4375 449.125,420.6953 Q449.3594,420.9531 449.3594,421.5625 L449.3594,423.0156 Q449.3594,423.625 449.125,423.8906 Q448.8906,424.1563 448.5156,424.1563 Q448.1719,424.1563 447.9688,423.9531 Q447.7656,423.7656 447.6563,423.25 Q447.6094,422.8906 447.4219,422.7031 Q447.0938,422.3281 446.4844,422.1094 Q445.875,421.8906 445.25,421.8906 Q444.4844,421.8906 443.8516,422.2188 Q443.2188,422.5469 442.7266,423.2969 Q442.2344,424.0469 442.2344,425.0781 L442.2344,426.1719 Q442.2344,427.4063 443.125,428.2266 Q444.0156,429.0469 445.6094,429.0469 Q446.5469,429.0469 447.2031,428.7969 Q447.5938,428.6406 448.0156,428.2031 Q448.2813,427.9375 448.4297,427.8594 Q448.5781,427.7813 448.7813,427.7813 Q449.1094,427.7813 449.3672,428.0391 Q449.625,428.2969 449.625,428.6406 Q449.625,428.9844 449.2813,429.3906 Q448.7813,429.9688 447.9844,430.2969 Q446.9063,430.75 445.6094,430.75 Q444.0938,430.75 442.8906,430.125 Q441.9063,429.625 441.2188,428.5547 Q440.5313,427.4844 440.5313,426.2031 L440.5313,425.0469 Q440.5313,423.7188 441.1484,422.5703 Q441.7656,421.4219 442.8594,420.8047 Q443.9531,420.1875 445.1875,420.1875 Q445.9219,420.1875 446.5703,420.3516 Q447.2188,420.5156 447.7656,420.875 Z "/><text fill="#000000" font-family="sans-serif" font-size="12" lengthAdjust="spacingAndGlyphs" textLength="24" x="459" y="429.9102">Wait</text><line style="stroke: #A80036; stroke-width: 1.5;" x1="431" x2="485" y1="441" y2="441"/><line style="stroke: #A80036; stroke-width: 1.5;" x1="431" x2="485" y1="449" y2="449"/></a><!--class If--><a target="_top" xlink:actuate="onRequest" xlink:href="marker:/org.eclipse.emf.ecore.diagnostic/fr.unice.polytech.robotproject.model/model/model.ecore?uri=platform:/resource/fr.unice.polytech.robotproject.model/model/model.ecore%23//If" xlink:show="new" xlink:title="marker:/org.eclipse.emf.ecore.diagnostic/fr.unice.polytech.robotproject.model/model/model.ecore?uri=platform:/resource/fr.unice.polytech.robotproject.model/model/model.ecore%23//If" xlink:type="simple"><rect fill="#FEFECE" filter="url(#f3aoeg5khsct4)" height="48" id="If" style="stroke: #A80036; stroke-width: 1.5;" width="38" x="762" y="409"/><ellipse cx="777" cy="425" fill="#ADD1B2" rx="11" ry="11" style="stroke: #A80036; stroke-width: 1.0;"/><path d="M779.7656,420.875 Q779.9219,420.6563 780.1094,420.5469 Q780.2969,420.4375 780.5156,420.4375 Q780.8906,420.4375 781.125,420.6953 Q781.3594,420.9531 781.3594,421.5625 L781.3594,423.0156 Q781.3594,423.625 781.125,423.8906 Q780.8906,424.1563 780.5156,424.1563 Q780.1719,424.1563 779.9688,423.9531 Q779.7656,423.7656 779.6563,423.25 Q779.6094,422.8906 779.4219,422.7031 Q779.0938,422.3281 778.4844,422.1094 Q777.875,421.8906 777.25,421.8906 Q776.4844,421.8906 775.8516,422.2188 Q775.2188,422.5469 774.7266,423.2969 Q774.2344,424.0469 774.2344,425.0781 L774.2344,426.1719 Q774.2344,427.4063 775.125,428.2266 Q776.0156,429.0469 777.6094,429.0469 Q778.5469,429.0469 779.2031,428.7969 Q779.5938,428.6406 780.0156,428.2031 Q780.2813,427.9375 780.4297,427.8594 Q780.5781,427.7813 780.7813,427.7813 Q781.1094,427.7813 781.3672,428.0391 Q781.625,428.2969 781.625,428.6406 Q781.625,428.9844 781.2813,429.3906 Q780.7813,429.9688 779.9844,430.2969 Q778.9063,430.75 777.6094,430.75 Q776.0938,430.75 774.8906,430.125 Q773.9063,429.625 773.2188,428.5547 Q772.5313,427.4844 772.5313,426.2031 L772.5313,425.0469 Q772.5313,423.7188 773.1484,422.5703 Q773.7656,421.4219 774.8594,420.8047 Q775.9531,420.1875 777.1875,420.1875 Q777.9219,420.1875 778.5703,420.3516 Q779.2188,420.5156 779.7656,420.875 Z "/><text fill="#000000" font-family="sans-serif" font-size="12" lengthAdjust="spacingAndGlyphs" textLength="6" x="791" y="429.9102">If</text><line style="stroke: #A80036; stroke-width: 1.5;" x1="763" x2="799" y1="441" y2="441"/><line style="stroke: #A80036; stroke-width: 1.5;" x1="763" x2="799" y1="449" y2="449"/></a><!--class InstructionBlock--><a target="_top" xlink:actuate="onRequest" xlink:href="marker:/org.eclipse.emf.ecore.diagnostic/fr.unice.polytech.robotproject.model/model/model.ecore?uri=platform:/resource/fr.unice.polytech.robotproject.model/model/model.ecore%23//InstructionBlock" xlink:show="new" xlink:title="marker:/org.eclipse.emf.ecore.diagnostic/fr.unice.polytech.robotproject.model/model/model.ecore?uri=platform:/resource/fr.unice.polytech.robotproject.model/model/model.ecore%23//InstructionBlock" xlink:type="simple"><rect fill="#FEFECE" filter="url(#f3aoeg5khsct4)" height="48" id="InstructionBlock" style="stroke: #A80036; stroke-width: 1.5;" width="119" x="595.5" y="531"/><ellipse cx="610.5" cy="547" fill="#ADD1B2" rx="11" ry="11" style="stroke: #A80036; stroke-width: 1.0;"/><path d="M613.2656,542.875 Q613.4219,542.6563 613.6094,542.5469 Q613.7969,542.4375 614.0156,542.4375 Q614.3906,542.4375 614.625,542.6953 Q614.8594,542.9531 614.8594,543.5625 L614.8594,545.0156 Q614.8594,545.625 614.625,545.8906 Q614.3906,546.1563 614.0156,546.1563 Q613.6719,546.1563 613.4688,545.9531 Q613.2656,545.7656 613.1563,545.25 Q613.1094,544.8906 612.9219,544.7031 Q612.5938,544.3281 611.9844,544.1094 Q611.375,543.8906 610.75,543.8906 Q609.9844,543.8906 609.3516,544.2188 Q608.7188,544.5469 608.2266,545.2969 Q607.7344,546.0469 607.7344,547.0781 L607.7344,548.1719 Q607.7344,549.4063 608.625,550.2266 Q609.5156,551.0469 611.1094,551.0469 Q612.0469,551.0469 612.7031,550.7969 Q613.0938,550.6406 613.5156,550.2031 Q613.7813,549.9375 613.9297,549.8594 Q614.0781,549.7813 614.2813,549.7813 Q614.6094,549.7813 614.8672,550.0391 Q615.125,550.2969 615.125,550.6406 Q615.125,550.9844 614.7813,551.3906 Q614.2813,551.9688 613.4844,552.2969 Q612.4063,552.75 611.1094,552.75 Q609.5938,552.75 608.3906,552.125 Q607.4063,551.625 606.7188,550.5547 Q606.0313,549.4844 606.0313,548.2031 L606.0313,547.0469 Q606.0313,545.7188 606.6484,544.5703 Q607.2656,543.4219 608.3594,542.8047 Q609.4531,542.1875 610.6875,542.1875 Q611.4219,542.1875 612.0703,542.3516 Q612.7188,542.5156 613.2656,542.875 Z "/><text fill="#000000" font-family="sans-serif" font-size="12" lengthAdjust="spacingAndGlyphs" textLength="87" x="624.5" y="551.9102">InstructionBlock</text><line style="stroke: #A80036; stroke-width: 1.5;" x1="596.5" x2="713.5" y1="563" y2="563"/><line style="stroke: #A80036; stroke-width: 1.5;" x1="596.5" x2="713.5" y1="571" y2="571"/></a><!--class DetectedType--><rect fill="#FEFECE" filter="url(#f3aoeg5khsct4)" height="89.5078" id="DetectedType" style="stroke: #A80036; stroke-width: 1.5;" width="107" x="537.5" y="130"/><ellipse cx="552.5" cy="146" fill="#EB937F" rx="11" ry="11" style="stroke: #A80036; stroke-width: 1.0;"/><path d="M551.3594,146.7969 L551.3594,149.2969 L555.6875,149.2969 L555.6875,148.375 Q555.6875,147.7656 555.9297,147.5 Q556.1719,147.2344 556.5469,147.2344 Q556.9219,147.2344 557.1563,147.5 Q557.3906,147.7656 557.3906,148.375 L557.3906,151 L549.3906,151 Q548.7656,151 548.5078,150.7656 Q548.25,150.5313 548.25,150.1406 Q548.25,149.7656 548.5156,149.5313 Q548.7813,149.2969 549.3906,149.2969 L549.6563,149.2969 L549.6563,142.6406 L549.3906,142.6406 Q548.7656,142.6406 548.5078,142.4063 Q548.25,142.1719 548.25,141.7813 Q548.25,141.4063 548.5078,141.1719 Q548.7656,140.9375 549.3906,140.9375 L557.0156,140.9375 L557.0156,143.5313 Q557.0156,144.1406 556.7891,144.3984 Q556.5625,144.6563 556.1719,144.6563 Q555.7969,144.6563 555.5625,144.3984 Q555.3281,144.1406 555.3281,143.5313 L555.3281,142.6406 L551.3594,142.6406 L551.3594,145.0938 L552.8438,145.0938 Q552.8438,144.4375 552.9688,144.25 Q553.2344,143.8438 553.7031,143.8438 Q554.0781,143.8438 554.3125,144.1016 Q554.5469,144.3594 554.5469,144.9688 L554.5469,146.9375 Q554.5469,147.4844 554.4219,147.6719 Q554.1563,148.0625 553.7031,148.0625 Q553.2344,148.0625 552.9688,147.6563 Q552.8438,147.4688 552.8438,146.7969 L551.3594,146.7969 Z "/><text fill="#000000" font-family="sans-serif" font-size="12" lengthAdjust="spacingAndGlyphs" textLength="75" x="566.5" y="150.9102">DetectedType</text><line style="stroke: #A80036; stroke-width: 1.5;" x1="538.5" x2="643.5" y1="162" y2="162"/><text fill="#000000" font-family="sans-serif" font-size="11" lengthAdjust="spacingAndGlyphs" textLength="55" x="543.5" y="177.4189">NULL NULL</text><text fill="#000000" font-family="sans-serif" font-size="11" lengthAdjust="spacingAndGlyphs" textLength="57" x="543.5" y="191.2549">BALL BALL</text><text fill="#000000" font-family="sans-serif" font-size="11" lengthAdjust="spacingAndGlyphs" textLength="63" x="543.5" y="205.0908">WALL WALL</text><line style="stroke: #A80036; stroke-width: 1.5;" x1="538.5" x2="643.5" y1="211.5078" y2="211.5078"/><!--class DetectedObjectIs--><a target="_top" xlink:actuate="onRequest" xlink:href="marker:/org.eclipse.emf.ecore.diagnostic/fr.unice.polytech.robotproject.model/model/model.ecore?uri=platform:/resource/fr.unice.polytech.robotproject.model/model/model.ecore%23//DetectedObjectIs" xlink:show="new" xlink:title="marker:/org.eclipse.emf.ecore.diagnostic/fr.unice.polytech.robotproject.model/model/model.ecore?uri=platform:/resource/fr.unice.polytech.robotproject.model/model/model.ecore%23//DetectedObjectIs" xlink:type="simple"><rect fill="#FEFECE" filter="url(#f3aoeg5khsct4)" height="61.8359" id="DetectedObjectIs" style="stroke: #A80036; stroke-width: 1.5;" width="145" x="634.5" y="646"/><ellipse cx="658.05" cy="662" fill="#ADD1B2" rx="11" ry="11" style="stroke: #A80036; stroke-width: 1.0;"/><path d="M660.8156,657.875 Q660.9719,657.6563 661.1594,657.5469 Q661.3469,657.4375 661.5656,657.4375 Q661.9406,657.4375 662.175,657.6953 Q662.4094,657.9531 662.4094,658.5625 L662.4094,660.0156 Q662.4094,660.625 662.175,660.8906 Q661.9406,661.1563 661.5656,661.1563 Q661.2219,661.1563 661.0188,660.9531 Q660.8156,660.7656 660.7063,660.25 Q660.6594,659.8906 660.4719,659.7031 Q660.1438,659.3281 659.5344,659.1094 Q658.925,658.8906 658.3,658.8906 Q657.5344,658.8906 656.9016,659.2188 Q656.2688,659.5469 655.7766,660.2969 Q655.2844,661.0469 655.2844,662.0781 L655.2844,663.1719 Q655.2844,664.4063 656.175,665.2266 Q657.0656,666.0469 658.6594,666.0469 Q659.5969,666.0469 660.2531,665.7969 Q660.6438,665.6406 661.0656,665.2031 Q661.3313,664.9375 661.4797,664.8594 Q661.6281,664.7813 661.8313,664.7813 Q662.1594,664.7813 662.4172,665.0391 Q662.675,665.2969 662.675,665.6406 Q662.675,665.9844 662.3313,666.3906 Q661.8313,666.9688 661.0344,667.2969 Q659.9563,667.75 658.6594,667.75 Q657.1438,667.75 655.9406,667.125 Q654.9563,666.625 654.2688,665.5547 Q653.5813,664.4844 653.5813,663.2031 L653.5813,662.0469 Q653.5813,660.7188 654.1984,659.5703 Q654.8156,658.4219 655.9094,657.8047 Q657.0031,657.1875 658.2375,657.1875 Q658.9719,657.1875 659.6203,657.3516 Q660.2688,657.5156 660.8156,657.875 Z "/><text fill="#000000" font-family="sans-serif" font-size="12" lengthAdjust="spacingAndGlyphs" textLength="94" x="673.95" y="666.9102">DetectedObjectIs</text><line style="stroke: #A80036; stroke-width: 1.5;" x1="635.5" x2="778.5" y1="678" y2="678"/><text fill="#000000" font-family="sans-serif" font-size="11" lengthAdjust="spacingAndGlyphs" textLength="133" x="640.5" y="693.4189">DetectedType rightOperand</text><line style="stroke: #A80036; stroke-width: 1.5;" x1="635.5" x2="778.5" y1="699.8359" y2="699.8359"/></a><!--class HomeDirection--><a target="_top" xlink:actuate="onRequest" xlink:href="marker:/org.eclipse.emf.ecore.diagnostic/fr.unice.polytech.robotproject.model/model/model.ecore?uri=platform:/resource/fr.unice.polytech.robotproject.model/model/model.ecore%23//HomeDirection" xlink:show="new" xlink:title="marker:/org.eclipse.emf.ecore.diagnostic/fr.unice.polytech.robotproject.model/model/model.ecore?uri=platform:/resource/fr.unice.polytech.robotproject.model/model/model.ecore%23//HomeDirection" xlink:type="simple"><rect fill="#FEFECE" filter="url(#f3aoeg5khsct4)" height="48" id="HomeDirection" style="stroke: #A80036; stroke-width: 1.5;" width="115" x="306.5" y="653"/><ellipse cx="321.5" cy="669" fill="#ADD1B2" rx="11" ry="11" style="stroke: #A80036; stroke-width: 1.0;"/><path d="M324.2656,664.875 Q324.4219,664.6563 324.6094,664.5469 Q324.7969,664.4375 325.0156,664.4375 Q325.3906,664.4375 325.625,664.6953 Q325.8594,664.9531 325.8594,665.5625 L325.8594,667.0156 Q325.8594,667.625 325.625,667.8906 Q325.3906,668.1563 325.0156,668.1563 Q324.6719,668.1563 324.4688,667.9531 Q324.2656,667.7656 324.1563,667.25 Q324.1094,666.8906 323.9219,666.7031 Q323.5938,666.3281 322.9844,666.1094 Q322.375,665.8906 321.75,665.8906 Q320.9844,665.8906 320.3516,666.2188 Q319.7188,666.5469 319.2266,667.2969 Q318.7344,668.0469 318.7344,669.0781 L318.7344,670.1719 Q318.7344,671.4063 319.625,672.2266 Q320.5156,673.0469 322.1094,673.0469 Q323.0469,673.0469 323.7031,672.7969 Q324.0938,672.6406 324.5156,672.2031 Q324.7813,671.9375 324.9297,671.8594 Q325.0781,671.7813 325.2813,671.7813 Q325.6094,671.7813 325.8672,672.0391 Q326.125,672.2969 326.125,672.6406 Q326.125,672.9844 325.7813,673.3906 Q325.2813,673.9688 324.4844,674.2969 Q323.4063,674.75 322.1094,674.75 Q320.5938,674.75 319.3906,674.125 Q318.4063,673.625 317.7188,672.5547 Q317.0313,671.4844 317.0313,670.2031 L317.0313,669.0469 Q317.0313,667.7188 317.6484,666.5703 Q318.2656,665.4219 319.3594,664.8047 Q320.4531,664.1875 321.6875,664.1875 Q322.4219,664.1875 323.0703,664.3516 Q323.7188,664.5156 324.2656,664.875 Z "/><text fill="#000000" font-family="sans-serif" font-size="12" lengthAdjust="spacingAndGlyphs" textLength="83" x="335.5" y="673.9102">HomeDirection</text><line style="stroke: #A80036; stroke-width: 1.5;" x1="307.5" x2="420.5" y1="685" y2="685"/><line style="stroke: #A80036; stroke-width: 1.5;" x1="307.5" x2="420.5" y1="693" y2="693"/></a><!--class Print--><a target="_top" xlink:actuate="onRequest" xlink:href="marker:/org.eclipse.emf.ecore.diagnostic/fr.unice.polytech.robotproject.model/model/model.ecore?uri=platform:/resource/fr.unice.polytech.robotproject.model/model/model.ecore%23//Print" xlink:show="new" xlink:title="marker:/org.eclipse.emf.ecore.diagnostic/fr.unice.polytech.robotproject.model/model/model.ecore?uri=platform:/resource/fr.unice.polytech.robotproject.model/model/model.ecore%23//Print" xlink:type="simple"><rect fill="#FEFECE" filter="url(#f3aoeg5khsct4)" height="61.8359" id="Print" style="stroke: #A80036; stroke-width: 1.5;" width="70" x="1066" y="280"/><ellipse cx="1086.85" cy="296" fill="#ADD1B2" rx="11" ry="11" style="stroke: #A80036; stroke-width: 1.0;"/><path d="M1089.6156,291.875 Q1089.7719,291.6563 1089.9594,291.5469 Q1090.1469,291.4375 1090.3656,291.4375 Q1090.7406,291.4375 1090.975,291.6953 Q1091.2094,291.9531 1091.2094,292.5625 L1091.2094,294.0156 Q1091.2094,294.625 1090.975,294.8906 Q1090.7406,295.1563 1090.3656,295.1563 Q1090.0219,295.1563 1089.8188,294.9531 Q1089.6156,294.7656 1089.5063,294.25 Q1089.4594,293.8906 1089.2719,293.7031 Q1088.9438,293.3281 1088.3344,293.1094 Q1087.725,292.8906 1087.1,292.8906 Q1086.3344,292.8906 1085.7016,293.2188 Q1085.0688,293.5469 1084.5766,294.2969 Q1084.0844,295.0469 1084.0844,296.0781 L1084.0844,297.1719 Q1084.0844,298.4063 1084.975,299.2266 Q1085.8656,300.0469 1087.4594,300.0469 Q1088.3969,300.0469 1089.0531,299.7969 Q1089.4438,299.6406 1089.8656,299.2031 Q1090.1313,298.9375 1090.2797,298.8594 Q1090.4281,298.7813 1090.6313,298.7813 Q1090.9594,298.7813 1091.2172,299.0391 Q1091.475,299.2969 1091.475,299.6406 Q1091.475,299.9844 1091.1313,300.3906 Q1090.6313,300.9688 1089.8344,301.2969 Q1088.7563,301.75 1087.4594,301.75 Q1085.9438,301.75 1084.7406,301.125 Q1083.7563,300.625 1083.0688,299.5547 Q1082.3813,298.4844 1082.3813,297.2031 L1082.3813,296.0469 Q1082.3813,294.7188 1082.9984,293.5703 Q1083.6156,292.4219 1084.7094,291.8047 Q1085.8031,291.1875 1087.0375,291.1875 Q1087.7719,291.1875 1088.4203,291.3516 Q1089.0688,291.5156 1089.6156,291.875 Z "/><text fill="#000000" font-family="sans-serif" font-size="12" lengthAdjust="spacingAndGlyphs" textLength="25" x="1102.15" y="300.9102">Print</text><line style="stroke: #A80036; stroke-width: 1.5;" x1="1067" x2="1135" y1="312" y2="312"/><text fill="#000000" font-family="sans-serif" font-size="11" lengthAdjust="spacingAndGlyphs" textLength="58" x="1072" y="327.4189">String string</text><line style="stroke: #A80036; stroke-width: 1.5;" x1="1067" x2="1135" y1="333.8359" y2="333.8359"/></a><!--link TimedInstruction to MoveStraight--><path d="M287.075,342.442 C243.287,359.544 187.943,381.51 139,402 C133.525,404.292 127.822,406.729 122.15,409.185 " fill="none" id="TimedInstruction-MoveStraight" style="stroke: #A80036; stroke-width: 1.0;"/><polygon fill="none" points="284.829,335.804,306.006,335.069,289.909,348.85,284.829,335.804" style="stroke: #A80036; stroke-width: 1.0;"/><!--link Instruction to TimedInstruction--><path d="M678.801,210.528 C673.295,213.991 667.625,217.24 662,220 C585.331,257.621 489.715,283.228 428.264,297.232 " fill="none" id="Instruction-TimedInstruction" style="stroke: #A80036; stroke-width: 1.0; stroke-dasharray: 7.0,7.0;"/><polygon fill="none" points="675.106,204.575,695.571,199.081,682.999,216.138,675.106,204.575" style="stroke: #A80036; stroke-width: 1.0;"/><!--link TimedInstruction to Turn--><path d="M366,355.305 C366,373.428 366,393.76 366,408.934 " fill="none" id="TimedInstruction-Turn" style="stroke: #A80036; stroke-width: 1.0;"/><polygon fill="none" points="359,355.137,366,335.137,373,355.137,359,355.137" style="stroke: #A80036; stroke-width: 1.0;"/><!--link Amount to Duration--><path d="M207.721,483.895 C211.44,497.42 215.354,511.65 218.675,523.729 " fill="none" id="Amount-Duration" style="stroke: #A80036; stroke-width: 1.0;"/><polygon fill="none" points="200.881,485.421,202.327,464.281,214.38,481.709,200.881,485.421" style="stroke: #A80036; stroke-width: 1.0;"/><!--link Instruction to Function--><path d="M702.465,217.309 C693.706,235.969 684.394,258.592 679,280 C668.581,321.349 666.125,370.808 665.738,401.822 " fill="none" id="Instruction-Function" style="stroke: #A80036; stroke-width: 1.0; stroke-dasharray: 7.0,7.0;"/><polygon fill="none" points="696.267,214.05,711.372,199.189,708.831,220.226,696.267,214.05" style="stroke: #A80036; stroke-width: 1.0;"/><!--link Instruction to Call--><path d="M724,219.297 C724,241.746 724,268.27 724,286.817 " fill="none" id="Instruction-Call" style="stroke: #A80036; stroke-width: 1.0; stroke-dasharray: 7.0,7.0;"/><polygon fill="none" points="717,219.035,724,199.035,731,219.035,717,219.035" style="stroke: #A80036; stroke-width: 1.0;"/><!--link Amount to Distance--><path d="M148.941,478.686 C133.802,493.701 117.279,510.087 103.5236,523.729 " fill="none" id="Amount-Distance" style="stroke: #A80036; stroke-width: 1.0;"/><polygon fill="none" points="144.337,473.394,163.467,464.281,154.195,483.335,144.337,473.394" style="stroke: #A80036; stroke-width: 1.0;"/><!--link Amount to Angle--><path d="M247.809,471.983 C271.564,488.751 299.092,508.183 321.39,523.922 " fill="none" id="Amount-Angle" style="stroke: #A80036; stroke-width: 1.0;"/><polygon fill="none" points="243.61,477.587,231.307,460.335,251.683,466.149,243.61,477.587" style="stroke: #A80036; stroke-width: 1.0;"/><!--link Condition to SensorActivation--><path d="M819.839,595.77 C833.118,614.7396 848.535,636.765 859.854,652.9338 " fill="none" id="Condition-SensorActivation" style="stroke: #A80036; stroke-width: 1.0;"/><polygon fill="none" points="813.931,599.536,808.196,579.137,825.4,591.508,813.931,599.536" style="stroke: #A80036; stroke-width: 1.0;"/><!--link Instruction to Grab--><path d="M767.544,211.797 C796.493,235.595 833.668,266.156 858.799,286.817 " fill="none" id="Instruction-Grab" style="stroke: #A80036; stroke-width: 1.0; stroke-dasharray: 7.0,7.0;"/><polygon fill="none" points="763.025,217.144,752.021,199.035,771.916,206.329,763.025,217.144" style="stroke: #A80036; stroke-width: 1.0;"/><!--link Instruction to Release--><path d="M786.95,206.672 C828.771,227.173 884.826,254.888 934,280 C939.577,282.848 945.442,285.886 951.201,288.894 " fill="none" id="Instruction-Release" style="stroke: #A80036; stroke-width: 1.0; stroke-dasharray: 7.0,7.0;"/><polygon fill="none" points="783.7,212.875,768.813,197.796,789.854,200.3,783.7,212.875" style="stroke: #A80036; stroke-width: 1.0;"/><!--link TimedInstruction to Wait--><path d="M396.043,351.187 C410.687,370.287 427.793,392.599 440.316,408.934 " fill="none" id="TimedInstruction-Wait" style="stroke: #A80036; stroke-width: 1.0;"/><polygon fill="none" points="390.352,355.268,383.739,335.137,401.462,346.75,390.352,355.268" style="stroke: #A80036; stroke-width: 1.0;"/><!--link Instruction to If--><path d="M745.601,217.292 C754.372,235.949 763.676,258.575 769,280 C780.108,324.7 781.66,378.856 781.514,408.964 " fill="none" id="Instruction-If" style="stroke: #A80036; stroke-width: 1.0; stroke-dasharray: 7.0,7.0;"/><polygon fill="none" points="739.236,220.212,736.675,199.178,751.795,214.024,739.236,220.212" style="stroke: #A80036; stroke-width: 1.0;"/><!--link Instruction to InstructionBlock--><path d="M683.581,214.669 C649.919,257.833 606.503,330.983 592,402 C586.486,428.998 585.55,437.21 592,464 C597.832,488.225 611.347,513.267 625.129,530.765 " fill="none" id="Instruction-InstructionBlock" style="stroke: #A80036; stroke-width: 1.0; stroke-dasharray: 7.0,7.0;"/><polygon fill="none" points="678.258,210.121,696.38,199.14,689.061,219.026,678.258,210.121" style="stroke: #A80036; stroke-width: 1.0;"/><!--link InstructionBlock to Instruction--><path d="M648.579,518.764 C640.988,502.739 631.602,483.115 627,464 C620.55,437.21 621.486,428.998 627,402 C641.953,328.784 687.636,253.3 711.476,210.745 " fill="none" id="InstructionBlock-Instruction" style="stroke: #A80036; stroke-width: 1.0;"/><polygon fill="#A80036" points="717.847,199.14,710.0097,205.1046,715.4409,203.523,717.0225,208.9543,717.847,199.14" style="stroke: #A80036; stroke-width: 1.0;"/><line style="stroke: #A80036; stroke-width: 1.0;" x1="715.4409" x2="711.5915" y1="203.523" y2="210.5355"/><polygon fill="#A80036" points="654.156,530.765,655.2547,523.6381,649.0986,519.8828,647.9999,527.0097,654.156,530.765" style="stroke: #A80036; stroke-width: 1.0;"/><text fill="#000000" font-family="sans-serif" font-size="13" lengthAdjust="spacingAndGlyphs" textLength="76" x="725.6097" y="220.5121">instructions *</text><!--link Condition to DetectedObjectIs--><path d="M763.915,595.65 C752.379,611.9348 739.237,630.4883 728.49,645.6608 " fill="none" id="Condition-DetectedObjectIs" style="stroke: #A80036; stroke-width: 1.0;"/><polygon fill="none" points="758.339,591.412,775.611,579.137,769.763,599.504,758.339,591.412" style="stroke: #A80036; stroke-width: 1.0;"/><!--link Angle to HomeDirection--><path d="M364,606.544 C364,622.6772 364,639.7456 364,652.9249 " fill="none" id="Angle-HomeDirection" style="stroke: #A80036; stroke-width: 1.0;"/><polygon fill="none" points="357,606.281,364,586.281,371,606.281,357,606.281" style="stroke: #A80036; stroke-width: 1.0;"/><!--link Instruction to Print--><path d="M788.231,192.432 C854.641,210.381 960.652,241.741 1048,280 C1053.91,282.588 1060.01,285.645 1065.88,288.802 " fill="none" id="Instruction-Print" style="stroke: #A80036; stroke-width: 1.0; stroke-dasharray: 7.0,7.0;"/><polygon fill="none" points="786.072,199.101,768.546,187.191,789.673,185.572,786.072,199.101" style="stroke: #A80036; stroke-width: 1.0;"/><!--link MoveStraight to Distance--><path d="M71.6051,470.306 C71.816,482.958 72.0547,497.284 72.2744,510.462 " fill="none" id="MoveStraight-Distance" style="stroke: #A80036; stroke-width: 1.0;"/><polygon fill="#A80036" points="72.4943,523.661,76.3444,514.5959,72.4113,518.6617,68.3455,514.7286,72.4943,523.661" style="stroke: #A80036; stroke-width: 1.0;"/><line style="stroke: #A80036; stroke-width: 1.0;" x1="72.4113" x2="72.2776" y1="518.6617" y2="510.6625"/><polygon fill="#A80036" points="71.3856,457.137,67.4857,463.2025,71.5847,469.1353,75.4846,463.0698,71.3856,457.137" style="stroke: #A80036; stroke-width: 1.0;"/><text fill="#000000" font-family="sans-serif" font-size="13" lengthAdjust="spacingAndGlyphs" textLength="49" x="18.3369" y="513.0956">distance</text><!--link Robot to Instruction--><path d="M724,76.129 C724,95.241 724,118.641 724,137.767 " fill="none" id="Robot-Instruction" style="stroke: #A80036; stroke-width: 1.0;"/><polygon fill="#A80036" points="724,150.817,728,141.817,724,145.817,720,141.817,724,150.817" style="stroke: #A80036; stroke-width: 1.0;"/><line style="stroke: #A80036; stroke-width: 1.0;" x1="724" x2="724" y1="145.817" y2="137.817"/><polygon fill="#A80036" points="724,63.035,720,69.035,724,75.035,728,69.035,724,63.035" style="stroke: #A80036; stroke-width: 1.0;"/><text fill="#000000" font-family="sans-serif" font-size="13" lengthAdjust="spacingAndGlyphs" textLength="76" x="652.3841" y="133.4914">instructions *</text><!--link TimedInstruction to Duration--><path d="M346.059,346.718 C320.96,390.414 277.889,465.401 251.009,512.199 " fill="none" id="TimedInstruction-Duration" style="stroke: #A80036; stroke-width: 1.0;"/><polygon fill="#A80036" points="244.38,523.741,252.3309,517.9287,246.8702,519.4052,245.3936,513.9444,244.38,523.741" style="stroke: #A80036; stroke-width: 1.0;"/><line style="stroke: #A80036; stroke-width: 1.0;" x1="246.8702" x2="250.8555" y1="519.4052" y2="512.468"/><polygon fill="#A80036" points="352.672,335.204,346.2152,338.4148,346.6956,345.6099,353.1524,342.3991,352.672,335.204" style="stroke: #A80036; stroke-width: 1.0;"/><text fill="#000000" font-family="sans-serif" font-size="13" lengthAdjust="spacingAndGlyphs" textLength="46" x="197.2209" y="513.1921">duration</text><!--link Turn to Angle--><path d="M365.395,470.306 C365.184,482.958 364.945,497.284 364.726,510.462 " fill="none" id="Turn-Angle" style="stroke: #A80036; stroke-width: 1.0;"/><polygon fill="#A80036" points="364.506,523.661,368.6548,514.7286,364.589,518.6617,360.6559,514.5959,364.506,523.661" style="stroke: #A80036; stroke-width: 1.0;"/><line style="stroke: #A80036; stroke-width: 1.0;" x1="364.589" x2="364.7225" y1="518.6617" y2="510.6625"/><polygon fill="#A80036" points="365.614,457.137,361.515,463.0698,365.4149,469.1353,369.5139,463.2025,365.614,457.137" style="stroke: #A80036; stroke-width: 1.0;"/><text fill="#000000" font-family="sans-serif" font-size="13" lengthAdjust="spacingAndGlyphs" textLength="31" x="330.4135" y="513.0956">angle</text><!--link Function to InstructionBlock--><path d="M662.032,477.285 C660.812,490.595 659.483,505.099 658.311,517.876 " fill="none" id="Function-InstructionBlock" style="stroke: #A80036; stroke-width: 1.0;"/><polygon fill="#A80036" points="657.115,530.925,661.9202,522.3279,657.5716,525.9459,653.9536,521.5973,657.115,530.925" style="stroke: #A80036; stroke-width: 1.0;"/><line style="stroke: #A80036; stroke-width: 1.0;" x1="657.5716" x2="658.302" y1="525.9459" y2="517.9795"/><polygon fill="#A80036" points="663.224,464.281,658.6928,469.8907,662.1282,476.2309,666.6594,470.6212,663.224,464.281" style="stroke: #A80036; stroke-width: 1.0;"/><text fill="#000000" font-family="sans-serif" font-size="13" lengthAdjust="spacingAndGlyphs" textLength="93" x="552.7413" y="520.2459">instructionBlock</text><!--link Call to Function--><path d="M712.817,335.137 C704.345,352.666 692.561,377.047 682.935,396.963 " fill="none" id="Call-Function" style="stroke: #A80036; stroke-width: 1.0;"/><polygon fill="#A80036" points="680.664,401.661,688.1836,395.3005,682.841,397.1598,680.9817,391.8173,680.664,401.661" style="stroke: #A80036; stroke-width: 1.0;"/><text fill="#000000" font-family="sans-serif" font-size="13" lengthAdjust="spacingAndGlyphs" textLength="63" x="614.1916" y="391.0956">destination</text><!--link If to Condition--><path d="M784.328,470.304 C785.711,485.389 787.312,502.854 788.692,517.915 " fill="none" id="If-Condition" style="stroke: #A80036; stroke-width: 1.0;"/><polygon fill="#A80036" points="789.886,530.934,793.0484,521.6067,789.43,525.9548,785.0818,522.3364,789.886,530.934" style="stroke: #A80036; stroke-width: 1.0;"/><line style="stroke: #A80036; stroke-width: 1.0;" x1="789.43" x2="788.699" y1="525.9548" y2="517.988"/><polygon fill="#A80036" points="783.121,457.137,779.6849,463.4768,784.2155,469.087,787.6516,462.7472,783.121,457.137" style="stroke: #A80036; stroke-width: 1.0;"/><text fill="#000000" font-family="sans-serif" font-size="13" lengthAdjust="spacingAndGlyphs" textLength="52" x="730.6818" y="520.2572">condition</text><!--link If to InstructionBlock--><path d="M751.422,453.015 C728.874,471.251 698.93,499.163 678.102,521.024 " fill="none" id="If-InstructionBlock" style="stroke: #A80036; stroke-width: 1.0;"/><polygon fill="#A80036" points="669.233,530.586,678.2862,526.708,672.6334,526.9203,672.4211,521.2674,669.233,530.586" style="stroke: #A80036; stroke-width: 1.0;"/><line style="stroke: #A80036; stroke-width: 1.0;" x1="672.6334" x2="678.074" y1="526.9203" y2="521.0545"/><polygon fill="#A80036" points="761.889,444.861,754.6976,445.3931,752.4227,452.236,759.6142,451.7039,761.889,444.861" style="stroke: #A80036; stroke-width: 1.0;"/><text fill="#000000" font-family="sans-serif" font-size="13" lengthAdjust="spacingAndGlyphs" textLength="60" x="680.0148" y="520.2231">falseBlock</text><!--link If to InstructionBlock--><path d="M758.628,466.921 C742.255,484.215 720.062,505.306 700.234,522.4 " fill="none" id="If-InstructionBlock" style="stroke: #A80036; stroke-width: 1.0;"/><polygon fill="#A80036" points="690.124,530.934,699.5815,528.1853,693.9448,527.7088,694.4212,522.0721,690.124,530.934" style="stroke: #A80036; stroke-width: 1.0;"/><line style="stroke: #A80036; stroke-width: 1.0;" x1="693.9448" x2="700.058" y1="527.7088" y2="522.549"/><polygon fill="#A80036" points="767.622,457.137,760.6168,458.8478,759.5016,465.9721,766.5068,464.2614,767.622,457.137" style="stroke: #A80036; stroke-width: 1.0;"/><text fill="#000000" font-family="sans-serif" font-size="13" lengthAdjust="spacingAndGlyphs" textLength="55" x="722.672" y="533.4552">trueBlock</text><!--link DistanceUnit to AngleUnit--><!--link DistanceUnit to TimeUnit--><!--link TimeUnit to DetectedType--><!--
@startuml
interface Instruction [[marker:/org.eclipse.emf.ecore.diagnostic/fr.unice.polytech.robotproject.model/model/model.ecore?uri=platform:/resource/fr.unice.polytech.robotproject.model/model/model.ecore%23//Instruction]] {
}
class MoveStraight [[marker:/org.eclipse.emf.ecore.diagnostic/fr.unice.polytech.robotproject.model/model/model.ecore?uri=platform:/resource/fr.unice.polytech.robotproject.model/model/model.ecore%23//MoveStraight]] {
}
class Robot [[marker:/org.eclipse.emf.ecore.diagnostic/fr.unice.polytech.robotproject.model/model/model.ecore?uri=platform:/resource/fr.unice.polytech.robotproject.model/model/model.ecore%23//Robot]] {
}
abstract class TimedInstruction [[marker:/org.eclipse.emf.ecore.diagnostic/fr.unice.polytech.robotproject.model/model/model.ecore?uri=platform:/resource/fr.unice.polytech.robotproject.model/model/model.ecore%23//TimedInstruction]] {
}
class Turn [[marker:/org.eclipse.emf.ecore.diagnostic/fr.unice.polytech.robotproject.model/model/model.ecore?uri=platform:/resource/fr.unice.polytech.robotproject.model/model/model.ecore%23//Turn]] {
}
class Amount [[marker:/org.eclipse.emf.ecore.diagnostic/fr.unice.polytech.robotproject.model/model/model.ecore?uri=platform:/resource/fr.unice.polytech.robotproject.model/model/model.ecore%23//Amount]] {
	int value
}
class Duration [[marker:/org.eclipse.emf.ecore.diagnostic/fr.unice.polytech.robotproject.model/model/model.ecore?uri=platform:/resource/fr.unice.polytech.robotproject.model/model/model.ecore%23//Duration]] {
	TimeUnit timeUnit
}
class Function [[marker:/org.eclipse.emf.ecore.diagnostic/fr.unice.polytech.robotproject.model/model/model.ecore?uri=platform:/resource/fr.unice.polytech.robotproject.model/model/model.ecore%23//Function]] {
	String name
}
enum DistanceUnit {
	CENTIMETERS cm
}
enum AngleUnit {
	DEGREES deg
}
enum TimeUnit {
	SECONDS s
	MILLISECONDS ms
}
class Call [[marker:/org.eclipse.emf.ecore.diagnostic/fr.unice.polytech.robotproject.model/model/model.ecore?uri=platform:/resource/fr.unice.polytech.robotproject.model/model/model.ecore%23//Call]] {
}
class Distance [[marker:/org.eclipse.emf.ecore.diagnostic/fr.unice.polytech.robotproject.model/model/model.ecore?uri=platform:/resource/fr.unice.polytech.robotproject.model/model/model.ecore%23//Distance]] {
	DistanceUnit distanceUnit
}
class Angle [[marker:/org.eclipse.emf.ecore.diagnostic/fr.unice.polytech.robotproject.model/model/model.ecore?uri=platform:/resource/fr.unice.polytech.robotproject.model/model/model.ecore%23//Angle]] {
	AngleUnit angleUnit
}
abstract class Condition [[marker:/org.eclipse.emf.ecore.diagnostic/fr.unice.polytech.robotproject.model/model/model.ecore?uri=platform:/resource/fr.unice.polytech.robotproject.model/model/model.ecore%23//Condition]] {
}
class SensorActivation [[marker:/org.eclipse.emf.ecore.diagnostic/fr.unice.polytech.robotproject.model/model/model.ecore?uri=platform:/resource/fr.unice.polytech.robotproject.model/model/model.ecore%23//SensorActivation]] {
}
class Grab [[marker:/org.eclipse.emf.ecore.diagnostic/fr.unice.polytech.robotproject.model/model/model.ecore?uri=platform:/resource/fr.unice.polytech.robotproject.model/model/model.ecore%23//Grab]] {
}
class Release [[marker:/org.eclipse.emf.ecore.diagnostic/fr.unice.polytech.robotproject.model/model/model.ecore?uri=platform:/resource/fr.unice.polytech.robotproject.model/model/model.ecore%23//Release]] {
}
class Wait [[marker:/org.eclipse.emf.ecore.diagnostic/fr.unice.polytech.robotproject.model/model/model.ecore?uri=platform:/resource/fr.unice.polytech.robotproject.model/model/model.ecore%23//Wait]] {
}
class If [[marker:/org.eclipse.emf.ecore.diagnostic/fr.unice.polytech.robotproject.model/model/model.ecore?uri=platform:/resource/fr.unice.polytech.robotproject.model/model/model.ecore%23//If]] {
}
class InstructionBlock [[marker:/org.eclipse.emf.ecore.diagnostic/fr.unice.polytech.robotproject.model/model/model.ecore?uri=platform:/resource/fr.unice.polytech.robotproject.model/model/model.ecore%23//InstructionBlock]] {
}
enum DetectedType {
	NULL NULL
	BALL BALL
	WALL WALL
}
class DetectedObjectIs [[marker:/org.eclipse.emf.ecore.diagnostic/fr.unice.polytech.robotproject.model/model/model.ecore?uri=platform:/resource/fr.unice.polytech.robotproject.model/model/model.ecore%23//DetectedObjectIs]] {
	DetectedType rightOperand
}
class HomeDirection [[marker:/org.eclipse.emf.ecore.diagnostic/fr.unice.polytech.robotproject.model/model/model.ecore?uri=platform:/resource/fr.unice.polytech.robotproject.model/model/model.ecore%23//HomeDirection]] {
}
class Print [[marker:/org.eclipse.emf.ecore.diagnostic/fr.unice.polytech.robotproject.model/model/model.ecore?uri=platform:/resource/fr.unice.polytech.robotproject.model/model/model.ecore%23//Print]] {
	String string
}
TimedInstruction <|- - MoveStraight
Instruction <|.. TimedInstruction
TimedInstruction <|- - Turn
Amount <|- - Duration
Instruction <|.. Function
Instruction <|.. Call
Amount <|- - Distance
Amount <|- - Angle
Condition <|- - SensorActivation
Instruction <|.. Grab
Instruction <|.. Release
TimedInstruction <|- - Wait
Instruction <|.. If
Instruction <|.. InstructionBlock
Condition <|- - DetectedObjectIs
Angle <|- - HomeDirection
Instruction <|.. Print
MoveStraight *- -> "distance" Distance
Robot *- -> "instructions *" Instruction
TimedInstruction *- -> "duration" Duration
Turn *- -> "angle" Angle
Function *- -> "instructionBlock" InstructionBlock
Call - -> "destination" Function
If *- -> "condition" Condition
If *- -> "falseBlock" InstructionBlock
If *- -> "trueBlock" InstructionBlock
InstructionBlock *- -> "instructions *" Instruction
@enduml

PlantUML version 1.2019.00(Sun Jan 13 16:46:42 CET 2019)
(EPL source distribution)
Java Runtime: Java(TM) SE Runtime Environment
JVM: Java HotSpot(TM) 64-Bit Server VM
Java Version: 1.8.0_201-b09
Operating System: Windows 10
OS Version: 10.0
Default Encoding: Cp1252
Language: fr
Country: FR
--></g></svg>